<svg width="16" height="12" viewBox="0 0 16 12" fill="none" xmlns="http://www.w3.org/2000/svg">
<path d="M15.6536 5.2885L11.7422 7.51327L13.2335 11.1186C13.3487 11.3947 13.2199 11.6973 12.9217 11.8726C12.7725 11.9575 12.5963 12 12.42 12C12.2438 12 12.0675 11.9575 11.9184 11.8726L8.007 9.64779L4.09561 11.8726C3.79734 12.0425 3.38383 12.0425 3.08556 11.8726C2.78729 11.7027 2.65849 11.3947 2.77373 11.1186L4.26508 7.51327L0.353679 5.2885C0.0554095 5.11858 -0.0733871 4.81062 0.0418534 4.53451C0.157094 4.25841 0.489258 4.07257 0.855316 4.07257H5.68864L7.17998 0.467257C7.29522 0.191151 7.62739 0 7.99345 0C8.36628 0 8.69167 0.185841 8.80691 0.467257L10.2983 4.07257H15.1316C15.5044 4.07257 15.8298 4.25841 15.945 4.53451C16.0806 4.81593 15.9586 5.11858 15.6536 5.2885Z" fill="#87184E"/>
</svg>
