<svg width="41" height="54" viewBox="0 0 41 54" fill="none" xmlns="http://www.w3.org/2000/svg">
<path d="M37.8704 43.2312C37.1957 45.732 36.2822 46.6762 35.2613 46.606C33.8224 51.1356 32.0253 53.9936 32.0253 53.9936H10.3109L14.2872 43.2312C14.2872 43.2312 15.3141 39.9968 15.4932 36.3987C15.6723 32.8069 14.2872 28.5645 13.1409 27.6331C13.1409 27.6331 15.5529 32.2073 14.2872 38.1977C13.0215 44.1882 10.3706 40.5518 10.3706 37.6172C10.3706 37.6172 6.96148 46 6.0898 37.2982C6.0898 37.2982 3.47475 42.8421 1.33734 40.0159C2.91353 30.2934 7.92869 25.7064 7.92869 25.7064L9.94669 20.4879C9.94669 20.4879 32.5507 21.5406 33.2194 21.6937C33.2194 21.6937 33.6552 22.2232 34.2762 23.1929C34.718 23.8819 35.2553 24.7878 35.8046 25.8851C37.7629 29.8022 39.7988 36.1052 37.8704 43.2312Z" fill="#BA1B68"/>
<path d="M15.5112 35.7544C15.5112 35.9713 15.5052 36.1882 15.4932 36.4051C15.3141 39.9968 14.2872 43.2376 14.2872 43.2376L14.1738 43.5503L14.0365 43.9203L10.3109 53.9937H0C0.441811 51.6524 0.710481 49.7066 0.871682 48.1181V48.1117L0.877652 48.0798L1.02691 47.059L1.32543 40.1053C1.3314 40.0797 1.3314 40.0542 1.33738 40.0287C3.47479 42.8549 6.08983 37.311 6.08983 37.311C6.38835 40.2839 6.98539 41.26 7.63617 41.26C7.65408 41.26 7.66602 41.26 7.68393 41.26H7.6899C7.70781 41.26 7.71975 41.2536 7.73767 41.2536C7.75558 41.2536 7.76752 41.2472 7.78543 41.2472C7.79737 41.2472 7.80931 41.2408 7.82125 41.2408C7.82722 41.2408 7.83319 41.2344 7.83916 41.2344C7.84513 41.2344 7.84514 41.2345 7.85111 41.2281C7.86305 41.2217 7.86902 41.2217 7.88096 41.2153C7.97051 41.1834 8.0541 41.1388 8.14366 41.0813C8.1556 41.075 8.17351 41.0622 8.18545 41.0494C8.20336 41.0367 8.22127 41.0239 8.23321 41.0112C8.26903 40.9856 8.31083 40.9537 8.34665 40.9218C8.35859 40.9091 8.37053 40.8963 8.38844 40.8899C8.40635 40.8772 8.42426 40.8581 8.43621 40.8453C8.45412 40.8262 8.47203 40.8134 8.48397 40.7943C8.49591 40.7815 8.50785 40.7687 8.52576 40.756C8.53173 40.7496 8.53173 40.7496 8.5377 40.7432C8.57353 40.7113 8.60338 40.673 8.6392 40.6348C8.7407 40.5199 8.83622 40.3987 8.93772 40.2647C8.94966 40.2456 8.96757 40.2265 8.97952 40.201C8.98549 40.1946 8.98548 40.1882 8.99146 40.1818C9.00937 40.1563 9.02728 40.1308 9.04519 40.1053C9.09892 40.0223 9.15266 39.9458 9.20639 39.8628C9.23027 39.8246 9.26013 39.7799 9.28401 39.7352C9.29595 39.7097 9.31386 39.6906 9.3258 39.6651C9.47506 39.4226 9.61238 39.1675 9.73776 38.9314C9.7497 38.9059 9.76761 38.874 9.77955 38.8485C9.95866 38.504 10.1079 38.185 10.2094 37.9617C10.2154 37.9489 10.2154 37.9426 10.2214 37.9298C10.2333 37.9107 10.2393 37.8915 10.2452 37.8724C10.2512 37.8596 10.2572 37.8469 10.2632 37.8341C10.3229 37.7001 10.3527 37.6172 10.3527 37.6172C10.3527 37.6363 10.3527 37.6491 10.3527 37.6682C10.3527 37.7257 10.3527 37.7767 10.3587 37.8341C10.3587 37.8596 10.3587 37.8852 10.3647 37.9171C10.3647 37.9298 10.3647 37.9426 10.3647 37.9553C10.3647 37.9808 10.3706 38 10.3706 38.0255C10.3706 38.0446 10.3766 38.0638 10.3766 38.0893C10.3766 38.1148 10.3826 38.1467 10.3826 38.1722C10.3885 38.2041 10.3885 38.2297 10.3945 38.2616C10.4005 38.2871 10.4005 38.319 10.4064 38.3445C10.4124 38.3764 10.4124 38.4083 10.4184 38.4338C10.4303 38.5104 10.4423 38.5933 10.4602 38.6698C10.4721 38.74 10.49 38.8102 10.5079 38.8868C10.5139 38.9059 10.5199 38.925 10.5199 38.9442C10.5318 38.9888 10.5438 39.0399 10.5557 39.0845C10.5676 39.1356 10.5856 39.193 10.6035 39.244C10.6094 39.2695 10.6214 39.295 10.6274 39.3206C10.6453 39.3716 10.6632 39.429 10.6811 39.4801C10.699 39.5311 10.7169 39.5821 10.7348 39.6332C10.7408 39.6587 10.7527 39.6778 10.7587 39.7033C10.7706 39.7289 10.7826 39.7544 10.7886 39.7863C10.8005 39.8118 10.8065 39.8373 10.8184 39.8628C10.8602 39.9585 10.902 40.0542 10.9498 40.1499C10.9617 40.1754 10.9736 40.1946 10.9856 40.2201C10.9975 40.2456 11.0095 40.2647 11.0214 40.2903C11.0333 40.3094 11.0453 40.3349 11.0572 40.3541C11.0811 40.3987 11.105 40.437 11.1289 40.4817C11.1408 40.5008 11.1527 40.5199 11.1647 40.5455C11.2423 40.6667 11.3199 40.7751 11.4035 40.8772C11.4154 40.8963 11.4334 40.9091 11.4453 40.9282C11.5289 41.0239 11.6184 41.1069 11.708 41.1834C11.7259 41.1962 11.7379 41.2089 11.7558 41.2153C11.8513 41.2855 11.9468 41.3365 12.0423 41.3812C12.0543 41.3876 12.0662 41.3939 12.0841 41.3939C12.2095 41.4386 12.3409 41.4514 12.4722 41.4386C12.4842 41.4386 12.5021 41.4322 12.514 41.4322C12.5259 41.4322 12.5439 41.4258 12.5558 41.4258C12.5618 41.4258 12.5618 41.4258 12.5677 41.4258C12.5797 41.4195 12.5916 41.4195 12.6036 41.4131C12.6215 41.4067 12.6394 41.4003 12.6513 41.3939C12.6633 41.3876 12.6812 41.3812 12.6931 41.3748C12.717 41.3684 12.7349 41.3557 12.7588 41.3429C12.7827 41.3301 12.8006 41.3174 12.8245 41.3046C12.8424 41.2919 12.8603 41.2791 12.8782 41.2663C12.8901 41.26 12.9021 41.2472 12.92 41.2408L12.926 41.2344C12.9439 41.2217 12.9558 41.2089 12.9737 41.1962C12.9857 41.1834 13.0036 41.1707 13.0155 41.1579C13.0454 41.1324 13.0752 41.1005 13.1051 41.075L13.111 41.0686C13.1349 41.0431 13.1648 41.0112 13.1887 40.9856C13.2364 40.9282 13.2842 40.8708 13.332 40.8006C13.3499 40.7687 13.3737 40.7432 13.3917 40.7113C13.4036 40.6922 13.4155 40.673 13.4275 40.6475C13.4394 40.6284 13.4514 40.6029 13.4693 40.5837C13.5051 40.5263 13.5409 40.4625 13.5708 40.3923C13.5767 40.386 13.5767 40.3796 13.5827 40.3732C13.5947 40.3477 13.6066 40.3222 13.6185 40.2966C13.6305 40.2711 13.6424 40.2456 13.6544 40.2137C13.6663 40.1946 13.6723 40.1691 13.6842 40.1435C13.6902 40.1244 13.6961 40.1116 13.7081 40.0925C13.7141 40.0734 13.72 40.0606 13.732 40.0415C13.7439 40.0159 13.7499 39.9904 13.7618 39.9649C13.7857 39.9011 13.8156 39.8309 13.8394 39.7608C13.8514 39.7289 13.8633 39.697 13.8753 39.6587C13.8872 39.6204 13.8991 39.5885 13.9111 39.5502C13.923 39.5183 13.935 39.4864 13.9409 39.4545C13.9529 39.4163 13.9648 39.3844 13.9768 39.3461C14.0126 39.2376 14.0424 39.1164 14.0783 39.0016C14.0962 38.925 14.12 38.8485 14.138 38.7719C14.1559 38.6954 14.1738 38.6188 14.1977 38.5359C14.2036 38.504 14.2156 38.4657 14.2215 38.4274C14.2395 38.3572 14.2514 38.2871 14.2693 38.2105C15.535 32.2201 13.123 27.6459 13.123 27.6459C13.1349 27.6586 13.1469 27.665 13.1588 27.6778C13.1708 27.6905 13.1827 27.6969 13.1946 27.7097C13.2245 27.7352 13.2484 27.7607 13.2782 27.7926C13.2961 27.8117 13.314 27.8309 13.332 27.85C13.3379 27.8564 13.3379 27.8564 13.3439 27.8628C13.3678 27.8883 13.3917 27.9202 13.4155 27.9521C13.4394 27.984 13.4633 28.0159 13.4932 28.0478C13.5051 28.0605 13.517 28.0797 13.529 28.0924C13.5529 28.1243 13.5708 28.1499 13.5947 28.1818C13.6126 28.2073 13.6305 28.2328 13.6424 28.2583C13.6603 28.2838 13.6782 28.3094 13.6961 28.3413C13.7141 28.3668 13.732 28.3987 13.7499 28.4242C13.7678 28.4561 13.7857 28.4816 13.8036 28.5135C13.8215 28.5454 13.8394 28.5773 13.8573 28.6028C13.8753 28.6347 13.8932 28.6666 13.9111 28.6985C13.929 28.7304 13.9469 28.7623 13.9648 28.7942C14.0006 28.858 14.0305 28.9282 14.0663 28.9984C14.0842 29.0303 14.1021 29.0685 14.1141 29.1068C14.132 29.1387 14.1439 29.177 14.1618 29.2089C14.1857 29.2599 14.2096 29.3173 14.2335 29.3684C14.2633 29.4322 14.2872 29.496 14.3111 29.5598C14.3111 29.5598 14.3111 29.5598 14.3111 29.5661C14.341 29.6363 14.3708 29.7129 14.3947 29.783C14.4783 30 14.5559 30.2232 14.6335 30.4593C14.6514 30.5039 14.6634 30.5486 14.6753 30.5933C14.6932 30.6379 14.7051 30.6826 14.7171 30.7336C14.7768 30.9314 14.8365 31.1291 14.8902 31.3333C14.9141 31.4226 14.938 31.5119 14.9619 31.6012C14.9738 31.6587 14.9917 31.7097 15.0037 31.7671C15.0276 31.8628 15.0455 31.9585 15.0693 32.0542C15.0873 32.1371 15.1052 32.2201 15.1231 32.3094C15.1828 32.5965 15.2365 32.8899 15.2843 33.1898C15.2902 33.2344 15.2962 33.2727 15.3022 33.3174C15.3559 33.681 15.4037 34.051 15.4335 34.421C15.4395 34.4593 15.4395 34.504 15.4455 34.5422C15.4455 34.5678 15.4515 34.5869 15.4515 34.6124C15.4574 34.6571 15.4574 34.7081 15.4634 34.7528C15.4694 34.8421 15.4753 34.925 15.4813 35.0079C15.4813 35.0462 15.4873 35.0909 15.4873 35.1292C15.4932 35.2376 15.4932 35.3397 15.4992 35.4481C15.5112 35.5566 15.5112 35.6587 15.5112 35.7544Z" fill="#4B80B2"/>
<path d="M34.2822 23.1929C33.6612 22.2232 33.2254 21.6937 33.2254 21.6937C33.518 21.7575 33.918 22.4401 34.2822 23.1929Z" fill="#4B80B2"/>
<path d="M37.8704 43.2312L36.6046 54H32.0193C32.0193 54 33.8224 51.1356 35.2553 46.6124C36.0912 43.984 36.8017 40.8006 36.9688 37.2791L37.8704 43.2312Z" fill="#4B80B2"/>
<path d="M36.8196 54H32.2104C32.2104 54 34.0194 51.1228 35.4702 46.5678C36.3061 43.9266 37.0225 40.7177 37.1897 37.1834C37.3688 33.4321 36.927 29.3045 35.3628 25.094C35.3628 25.094 35.6195 25.3045 36.0195 25.7192C38.336 28.1243 45.5005 37.4768 36.8196 54Z" fill="#87184E"/>
<path d="M15.5888 36.2966C15.4037 39.9075 14.3768 43.1674 14.3768 43.1674C14.3768 43.1674 14.3768 43.1674 14.3768 43.1738L14.0425 43.9202L13.8813 44.2775L11.714 48.0606L2.16132 50.8485L1.03888 47.059L1.3374 40.1052V40.0606L1.34337 39.9266C1.34934 39.933 1.34934 39.9394 1.35531 39.9457L1.36128 39.9521C3.51063 42.7847 6.13762 37.2089 6.13762 37.2089C6.67496 42.5422 8.15562 41.496 9.2303 39.8628C9.77958 39.0271 10.2274 38.0382 10.3826 37.6746C10.4244 37.5789 10.4423 37.5279 10.4423 37.5279C10.4423 39.6842 11.8692 42.2233 13.135 41.0686C13.6006 40.6475 14.0365 39.7288 14.3828 38.1084C15.4216 33.1961 14.0007 29.2344 13.4394 27.9329C13.3141 27.6395 13.2305 27.48 13.2305 27.48C14.3768 28.4242 15.7739 32.6857 15.5888 36.2966Z" fill="#A4185C"/>
<path d="M14.3708 43.1738L10.3706 53.9936H0C0.441811 51.6523 0.710481 49.7066 0.871682 48.118V48.1116L0.877652 48.0798L1.02691 47.059C2.81804 48.9729 5.27188 43.6268 5.27188 43.6268C6.00027 51.9905 9.82135 43.6268 9.82135 43.6268C10.1378 50.4274 13.326 45.0877 14.1678 43.5566C14.2753 43.3652 14.341 43.2312 14.3648 43.193C14.3708 43.1802 14.3708 43.1802 14.3708 43.1738Z" fill="#87184E"/>
<path d="M36.8255 29.8404C36.7539 29.8085 36.6823 29.7766 36.6106 29.7447C34.1448 28.641 33.2254 27.5883 32.9507 27.1992C32.8791 27.0971 32.8492 27.0397 32.8492 27.0397C32.8433 27.0525 32.8373 27.0588 32.8313 27.0716C32.3776 27.8435 32.8492 30.5485 32.8492 30.5485C30.27 30.8228 27.4878 25.9679 27.4878 25.9679C25.4758 30.9695 20.783 30.5421 20.783 30.5421C21.5054 26.6697 20.4248 25.6489 20.4248 25.6489C17.7142 29.5724 13.4096 28.9281 13.4096 28.9281C14.8007 27.314 14.5439 24.137 14.5439 24.137C12.5438 26.3762 7.6063 28.0923 7.52869 28.1179C7.6063 28.086 7.68392 27.7542 7.7675 27.2694C7.99438 25.8722 8.21529 23.1992 8.26902 22.893C8.90786 19.1736 9.74968 15.4607 10.9975 11.9136C11.6065 10.1911 12.2991 8.41123 13.2304 6.82271C13.3021 6.7015 13.3737 6.58028 13.4513 6.45907C21.183 -6.08325 32.4074 3.49255 32.6224 3.55635C33.0164 3.91999 33.3985 4.30914 33.7448 4.71106C34.9031 6.05078 35.7031 7.53723 35.4822 8.85781V8.86419C35.0046 11.7414 34.8255 14.4272 34.8314 16.8515C34.8314 16.9344 34.8314 17.0237 34.8314 17.1066C34.8314 17.2725 34.8314 17.432 34.8374 17.5979C34.9747 25.0493 36.8255 29.8404 36.8255 29.8404Z" fill="#F4E1EF"/>
<path d="M24.2936 13.196C24.2936 13.196 26.5982 13.7191 28.5446 11.499C29.3386 10.4911 30.0551 9.1322 30.0551 9.1322C30.0551 9.1322 31.7567 6.79088 34.915 8.70477C38.0734 10.6123 37.5301 17.8212 35.8225 19.7032L35.6434 19.3013L35.6195 19.7032C35.6195 19.7032 35.0762 16.003 34.0851 17.4448C34.0851 17.4448 30.9865 19.4225 27.3624 17.9297C23.7384 16.4369 23.41 13.4767 24.2936 13.196Z" fill="#FFB83C"/>
<path d="M35.2672 18.1593C35.2672 18.1593 33.3627 16.2454 30.5387 16.8515C27.7146 17.4575 24.9563 16.0285 24.8966 14.1912C24.8966 13.5341 25.9892 14.759 26.3594 15.0779C26.7236 15.4033 27.5654 16.1689 31.2193 15.9137C34.8612 15.6521 35.2672 18.1593 35.2672 18.1593Z" fill="#1B222D"/>
<path d="M26.3773 9.27892C26.1743 10.6761 25.0877 11.3013 24.1026 11.3013C23.1175 11.3013 22.0249 10.6761 21.8219 9.27892C21.792 9.08115 21.8338 8.88338 21.9293 8.76217C21.989 8.68562 22.0667 8.64734 22.1502 8.64734H22.1562C22.3413 8.64734 22.4906 8.83873 22.5324 9.14495C22.6697 10.0955 23.416 10.5229 24.0966 10.5229C24.7772 10.5229 25.5235 10.0955 25.6609 9.14495C25.7086 8.83873 25.8519 8.64734 26.043 8.64734C26.1325 8.64734 26.2101 8.68562 26.2698 8.76217C26.3654 8.88976 26.4012 9.08115 26.3773 9.27892Z" fill="#1B222D"/>
<path d="M32.9149 11.9201C33.2348 11.9201 33.4941 11.643 33.4941 11.3013C33.4941 10.9595 33.2348 10.6824 32.9149 10.6824C32.5951 10.6824 32.3358 10.9595 32.3358 11.3013C32.3358 11.643 32.5951 11.9201 32.9149 11.9201Z" fill="#1B222D"/>
</svg>
