<svg width="86" height="86" viewBox="0 0 86 86" fill="none" xmlns="http://www.w3.org/2000/svg">
<path d="M43 0L80.2391 21.5V64.5L43 86L5.76091 64.5V21.5L43 0Z" fill="white" fill-opacity="0.1"/>
<path fill-rule="evenodd" clip-rule="evenodd" d="M43.8244 20.8164L33.7407 24.8499V30.7589C33.7407 33.2787 34.3702 35.7586 35.5721 37.9733C36.774 40.188 38.5101 42.0674 40.6228 43.4407L43.8244 45.5215L47.0259 43.4407C49.1387 42.0673 50.8749 40.1879 52.0768 37.9731C53.2786 35.7583 53.9081 33.2783 53.908 30.7584V24.8499L43.8244 20.8164ZM50.5875 29.5963C50.6838 29.5033 50.7606 29.392 50.8135 29.269C50.8663 29.1459 50.8941 29.0136 50.8953 28.8797C50.8965 28.7458 50.8709 28.6131 50.8202 28.4891C50.7695 28.3652 50.6947 28.2526 50.6 28.1579C50.5053 28.0633 50.3927 27.9884 50.2688 27.9377C50.1449 27.887 50.0121 27.8615 49.8782 27.8626C49.7443 27.8638 49.612 27.8916 49.489 27.9445C49.3659 27.9973 49.2547 28.0741 49.1617 28.1704L42.816 34.5161L40.5038 32.2039C40.4108 32.1076 40.2995 32.0308 40.1765 31.9779C40.0535 31.9251 39.9211 31.8973 39.7872 31.8961C39.6534 31.895 39.5206 31.9205 39.3967 31.9712C39.2727 32.0219 39.1601 32.0967 39.0655 32.1914C38.9708 32.2861 38.8959 32.3987 38.8452 32.5226C38.7945 32.6465 38.769 32.7793 38.7702 32.9132C38.7713 33.0471 38.7991 33.1794 38.852 33.3024C38.9048 33.4255 38.9817 33.5367 39.078 33.6298L42.816 37.3678L50.5875 29.5963Z" fill="#F7FF00"/>
<path d="M48.3619 53.5714C48.3619 51.7059 48.9553 49.8999 50.0388 48.4085C50.2903 48.0664 50.5667 47.7434 50.8657 47.442L56.7112 41.5531C56.8826 41.38 57.0856 41.2414 57.3092 41.1447C57.4388 41.0918 57.5724 41.0514 57.7075 41.0227C58.1086 40.9455 58.5239 40.9988 58.8925 41.1749C59.2611 41.351 59.5635 41.6406 59.7555 42.0011C59.9474 42.3617 60.0188 42.7743 59.9591 43.1784C59.8994 43.5825 59.7118 43.9568 59.4237 44.2465L55.4407 48.2588C55.394 48.3058 55.3571 48.3615 55.332 48.4228C55.3069 48.4841 55.2941 48.5497 55.2944 48.6159C55.2946 48.6822 55.3079 48.7477 55.3335 48.8088C55.3591 48.8698 55.3964 48.9253 55.4435 48.9719C55.4905 49.0186 55.5462 49.0555 55.6075 49.0806C55.6688 49.1057 55.7344 49.1185 55.8006 49.1183C55.8668 49.118 55.9324 49.1047 55.9934 49.0791C56.0545 49.0535 56.11 49.0162 56.1566 48.9692L60.1397 44.9564C60.6345 44.4575 60.9329 43.797 60.9802 43.096C61.0274 42.3949 60.8203 41.7004 60.3968 41.1397V32.6971C60.3968 32.0867 60.6393 31.5013 61.0709 31.0696C61.5026 30.638 62.088 30.3955 62.6984 30.3955C63.3088 30.3955 63.8943 30.638 64.3259 31.0696C64.7575 31.5013 65 32.0867 65 32.6971V47.2272C65 50.2493 63.8202 53.1519 61.7112 55.3174L60.8531 56.1987C59.9435 55.7025 58.9025 55.5004 57.8734 55.6204L48.3619 56.7079V53.5714ZM57.9878 56.6227C58.5525 56.558 59.1244 56.6134 59.6662 56.7853C60.2079 56.9572 60.7072 57.2417 61.1313 57.6201C61.5554 57.9985 61.8947 58.4622 62.1269 58.9809C62.3592 59.4996 62.4792 60.0616 62.4791 60.63V61.1513C62.4791 62.221 62.0541 63.247 61.2977 64.0034C60.5413 64.7598 59.5154 65.1848 58.4456 65.1848H48.5631C47.6106 65.1846 46.6942 64.82 46.0018 64.1658C45.3094 63.5116 44.8935 62.6174 44.8394 61.6664C44.7852 60.7154 45.0969 59.7797 45.7105 59.0511C46.3241 58.3226 47.1932 57.8564 48.1396 57.748L57.9878 56.6227ZM28.1945 65.1848C27.1248 65.1848 26.0989 64.7598 25.3424 64.0034C24.586 63.247 24.1611 62.221 24.1611 61.1513V60.63C24.1609 60.0616 24.2809 59.4996 24.5132 58.9809C24.7455 58.4622 25.0848 57.9985 25.5089 57.6201C25.933 57.2417 26.4323 56.9572 26.974 56.7853C27.5157 56.6134 28.0877 56.558 28.6523 56.6227L38.5006 57.748C39.4469 57.8564 40.316 58.3226 40.9296 59.0511C41.5432 59.7797 41.8549 60.7154 41.8008 61.6664C41.7466 62.6174 41.3307 63.5116 40.6384 64.1658C39.946 64.82 39.0296 65.1846 38.0771 65.1848H28.1945ZM38.2782 53.5714C38.2782 51.7059 37.6848 49.8999 36.6013 48.4085C36.3498 48.0664 36.0735 47.7434 35.7744 47.442L29.9289 41.5531C29.7575 41.38 29.5546 41.2414 29.331 41.1447C29.2021 41.0922 29.0688 41.0514 28.9327 41.0227C28.5316 40.9455 28.1162 40.9988 27.7477 41.1749C27.3791 41.351 27.0766 41.6406 26.8847 42.0011C26.6927 42.3617 26.6214 42.7743 26.6811 43.1784C26.7408 43.5825 26.9284 43.9568 27.2164 44.2465L31.1995 48.2588C31.2461 48.3058 31.2831 48.3615 31.3082 48.4228C31.3333 48.4841 31.3461 48.5497 31.3458 48.6159C31.3455 48.6822 31.3322 48.7477 31.3067 48.8088C31.2811 48.8698 31.2437 48.9253 31.1967 48.9719C31.1497 49.0186 31.094 49.0555 31.0327 49.0806C30.9714 49.1057 30.9058 49.1185 30.8395 49.1183C30.7733 49.118 30.7078 49.1047 30.6467 49.0791C30.5856 49.0535 30.5302 49.0162 30.4835 48.9692L26.5005 44.9564C26.0056 44.4575 25.7072 43.797 25.66 43.096C25.6128 42.3949 25.8199 41.7004 26.2433 41.1397V32.6971C26.2433 32.0867 26.0009 31.5013 25.5692 31.0696C25.1376 30.638 24.5522 30.3955 23.9417 30.3955C23.3313 30.3955 22.7459 30.638 22.3143 31.0696C21.8826 31.5013 21.6401 32.0867 21.6401 32.6971V47.2272C21.6401 50.2493 22.8199 53.1519 24.9289 55.3174L25.7871 56.1987C26.6966 55.7025 27.7376 55.5004 28.7668 55.6204L38.2782 56.7079V53.5714Z" fill="#F7FF00"/>
</svg>
