<svg width="86" height="86" viewBox="0 0 86 86" fill="none" xmlns="http://www.w3.org/2000/svg">
<path d="M43 0L80.2391 21.5V64.5L43 86L5.76091 64.5V21.5L43 0Z" fill="white" fill-opacity="0.1"/>
<path d="M56.2453 48.253H54.4944V46.4097C54.4944 45.3917 53.7104 44.5664 52.7434 44.5664C51.7764 44.5664 50.9925 45.3917 50.9925 46.4097V48.253H49.2415C48.2746 48.253 47.4906 49.0783 47.4906 50.0963C47.4906 51.1143 48.2746 51.9397 49.2415 51.9397H50.9925V53.783C50.9925 54.801 51.7764 55.6263 52.7434 55.6263C53.7104 55.6263 54.4944 54.801 54.4944 53.783V51.9397H56.2453C57.2123 51.9397 57.9963 51.1143 57.9963 50.0963C57.9963 49.0783 57.2123 48.253 56.2453 48.253Z" fill="#FF0000"/>
<path d="M52.7433 37.1934C48.7179 37.1934 45.1396 39.2472 42.9039 42.4115C42.0105 42.2137 41.085 42.1089 40.1366 42.1089C39.1277 42.1089 38.1447 42.2274 37.199 42.4506C32.7492 43.5004 29.1273 46.8827 27.5565 51.3098C27.0115 52.8459 26.7126 54.5074 26.7126 56.2409C26.7126 57.2589 27.4966 58.0842 28.4636 58.0842H43.1244C45.3709 61.0763 48.8476 62.9997 52.7433 62.9997C59.5018 62.9997 65 57.2115 65 50.0966C65 42.9816 59.5018 37.1934 52.7433 37.1934ZM52.7433 59.3131C51.1568 59.3131 49.6688 58.8643 48.3842 58.0842C45.7601 56.4908 43.9886 53.5084 43.9886 50.0966C43.9886 47.6376 44.9099 45.4024 46.4059 43.7479C48.0016 41.9834 50.2516 40.88 52.7433 40.88C57.5707 40.88 61.4981 45.0145 61.4981 50.0966C61.4981 55.1786 57.5707 59.3131 52.7433 59.3131Z" fill="#FF0000"/>
<path d="M25.808 30.7116C25.808 33.6198 27.952 36.0091 30.6632 36.224C29.8015 34.5893 29.3099 32.7099 29.3099 30.7116C29.3099 28.7133 29.8015 26.8337 30.6632 25.1992C27.952 25.4139 25.808 27.8033 25.808 30.7116Z" fill="#FF0000"/>
<path d="M32.9129 40.1291C32.3094 39.9968 31.6894 39.9277 31.0608 39.9277C26.0646 39.9277 22 44.2069 22 49.4666C22 50.4846 22.784 51.3099 23.7509 51.3099H23.8706C25.2249 46.3664 28.5623 42.2996 32.9129 40.1291Z" fill="#FF0000"/>
<path d="M34.165 26.2541C33.3142 27.5137 32.8116 29.0515 32.8116 30.7113C32.8116 32.3712 33.3142 33.909 34.165 35.1686C35.4937 37.1355 37.6745 38.4224 40.1365 38.4224C44.1755 38.4224 47.4613 34.9632 47.4613 30.7112C47.4613 26.4592 44.1755 23 40.1365 23C37.6744 23.0002 35.4937 24.2871 34.165 26.2541Z" fill="#FF0000"/>
</svg>
