<svg width="86" height="86" viewBox="0 0 86 86" fill="none" xmlns="http://www.w3.org/2000/svg">
<path d="M43 0L80.2391 21.5V64.5L43 86L5.76091 64.5V21.5L43 0Z" fill="white" fill-opacity="0.1"/>
<path d="M64.0833 62.167C64.0818 62.6749 63.8794 63.1615 63.5203 63.5206C63.1612 63.8797 62.6745 64.0821 62.1667 64.0837H22.5555C22.3863 64.0832 22.224 64.0157 22.1043 63.896C21.9846 63.7763 21.9172 63.6141 21.9167 63.4448V23.8337C21.9167 23.3253 22.1186 22.8378 22.478 22.4784C22.8375 22.1189 23.325 21.917 23.8333 21.917C24.3417 21.917 24.8292 22.1189 25.1886 22.4784C25.5481 22.8378 25.75 23.3253 25.75 23.8337V60.2503H62.1667C62.6745 60.2518 63.1612 60.4543 63.5203 60.8134C63.8794 61.1725 64.0818 61.6591 64.0833 62.167Z" fill="#1ED760"/>
<path d="M47.4722 49.3896H43.6389C43.286 49.3896 43 49.6757 43 50.0285V58.3341C43 58.6869 43.286 58.973 43.6389 58.973H47.4722C47.8251 58.973 48.1111 58.6869 48.1111 58.3341V50.0285C48.1111 49.6757 47.8251 49.3896 47.4722 49.3896Z" fill="#1ED760"/>
<path d="M37.25 51.9443H33.4167C33.0638 51.9443 32.7778 52.2304 32.7778 52.5832V58.3332C32.7778 58.6861 33.0638 58.9721 33.4167 58.9721H37.25C37.6028 58.9721 37.8889 58.6861 37.8889 58.3332V52.5832C37.8889 52.2304 37.6028 51.9443 37.25 51.9443Z" fill="#1ED760"/>
<path d="M57.6944 46.1943H53.8611C53.5082 46.1943 53.2222 46.4804 53.2222 46.8332V58.3332C53.2222 58.6861 53.5082 58.9721 53.8611 58.9721H57.6944C58.0473 58.9721 58.3333 58.6861 58.3333 58.3332V46.8332C58.3333 46.4804 58.0473 46.1943 57.6944 46.1943Z" fill="#1ED760"/>
<path d="M58.1161 34.535C58.0586 34.5925 57.6433 34.9567 56.9597 35.4742C54.9919 36.9564 50.8072 39.6781 46.4947 39.7995C47.9667 39.7234 49.3533 39.0851 50.3682 38.0163C51.3832 36.9475 51.9491 35.5298 51.9491 34.0559C51.9491 32.5819 51.3832 31.1643 50.3682 30.0955C49.3533 29.0267 47.9667 28.3884 46.4947 28.3123C50.8072 28.4337 54.9919 31.1553 56.9597 32.6375C57.6433 33.155 58.0586 33.5192 58.1161 33.5767C58.1849 33.636 58.24 33.7096 58.2775 33.7924C58.315 33.8751 58.334 33.965 58.3333 34.0559C58.3333 30.8364 57.0544 27.7489 54.7779 25.4724C52.5014 23.1959 49.4139 21.917 46.1944 21.917C42.975 21.917 39.8874 23.1959 37.6109 25.4724C35.3345 27.7489 34.0555 30.8364 34.0555 34.0559C34.0548 33.965 34.0739 33.8751 34.1114 33.7924C34.1489 33.7096 34.204 33.636 34.2728 33.5767C34.3303 33.5192 34.7455 33.155 35.4291 32.6375C37.3969 31.1553 41.5816 28.4337 45.8941 28.3123C44.4222 28.3884 43.0356 29.0267 42.0206 30.0955C41.0056 31.1643 40.4397 32.5819 40.4397 34.0559C40.4397 35.5298 41.0056 36.9475 42.0206 38.0163C43.0356 39.0851 44.4222 39.7234 45.8941 39.7995C41.5816 39.6781 37.3969 36.9564 35.4291 35.4742C34.7455 34.9567 34.3303 34.5925 34.2728 34.535C34.204 34.4757 34.1489 34.4021 34.1114 34.3194C34.0739 34.2366 34.0548 34.1467 34.0555 34.0559C34.0537 37.0534 35.1647 39.9448 37.1733 42.1698L35.9083 43.4348C35.4423 43.1688 34.9019 43.0629 34.37 43.1333C33.8381 43.2037 33.3438 43.4465 32.963 43.8245L28.4908 48.2967C28.0436 48.7584 27.7958 49.3773 27.8009 50.0201C27.806 50.6628 28.0635 51.2778 28.518 51.7323C28.9725 52.1868 29.5875 52.4444 30.2302 52.4494C30.873 52.4545 31.4919 52.2067 31.9536 51.7595L36.4258 47.2873C36.8038 46.9065 37.0466 46.4123 37.117 45.8803C37.1874 45.3484 37.0815 44.808 36.8155 44.342L38.0805 43.077C39.8238 44.6474 41.9851 45.6786 44.3025 46.0457C46.6199 46.4128 48.9941 46.1001 51.1374 45.1454C53.2807 44.1907 55.1012 42.635 56.3784 40.6668C57.6556 38.6986 58.3346 36.4022 58.3333 34.0559C58.334 34.1467 58.315 34.2366 58.2775 34.3194C58.24 34.4021 58.1849 34.4757 58.1161 34.535ZM45.5555 24.4725C45.556 24.3033 45.6235 24.141 45.7432 24.0213C45.8629 23.9016 46.0251 23.8342 46.1944 23.8337C48.7668 23.8343 51.2435 24.809 53.1264 26.5617C53.1882 26.6183 53.2382 26.6865 53.2736 26.7624C53.309 26.8383 53.3291 26.9205 53.3326 27.0042C53.3362 27.0879 53.3232 27.1714 53.2944 27.2501C53.2655 27.3288 53.2215 27.401 53.1647 27.4625C53.1039 27.5269 53.0306 27.5782 52.9493 27.6133C52.868 27.6485 52.7805 27.6667 52.6919 27.667C52.5324 27.6667 52.3791 27.6049 52.2639 27.4945C50.6123 25.9653 48.4452 25.1144 46.1944 25.1114C46.0251 25.1109 45.8629 25.0435 45.7432 24.9238C45.6235 24.804 45.556 24.6418 45.5555 24.4725ZM41.7222 34.0559C41.7222 33.1714 41.9845 32.3067 42.4759 31.5712C42.9673 30.8358 43.6658 30.2626 44.483 29.9241C45.3002 29.5856 46.1994 29.497 47.0669 29.6696C47.9344 29.8422 48.7313 30.2681 49.3568 30.8935C49.9822 31.519 50.4082 32.3159 50.5807 33.1834C50.7533 34.0509 50.6647 34.9501 50.3262 35.7673C49.9877 36.5845 49.4145 37.283 48.6791 37.7744C47.9436 38.2658 47.0789 38.5281 46.1944 38.5281C45.607 38.5285 45.0253 38.4131 44.4825 38.1885C43.9397 37.9639 43.4465 37.6345 43.0311 37.2192C42.6158 36.8038 42.2864 36.3106 42.0618 35.7678C41.8372 35.225 41.7218 34.6433 41.7222 34.0559Z" fill="#1ED760"/>
</svg>
