<svg width="86" height="86" viewBox="0 0 86 86" fill="none" xmlns="http://www.w3.org/2000/svg">
<path d="M43 0L80.2391 21.5V64.5L43 86L5.76091 64.5V21.5L43 0Z" fill="#51A2FF" fill-opacity="0.1"/>
<path d="M29.6767 46.999C29.3614 47.0002 29.0523 46.8942 28.7853 46.693C28.5183 46.4918 28.3043 46.2039 28.1682 45.8626C28.0321 45.5213 27.9795 45.1406 28.0165 44.7649C28.0535 44.3891 28.1786 44.0336 28.3772 43.7398L44.871 23.3451C44.9947 23.1737 45.1633 23.0579 45.3491 23.0167C45.5349 22.9754 45.7268 23.0112 45.8935 23.1182C46.0601 23.2251 46.1914 23.3969 46.266 23.6053C46.3406 23.8136 46.3539 24.0462 46.3038 24.2649L43.105 36.3017C43.0106 36.6047 42.979 36.9306 43.0127 37.2515C43.0463 37.5724 43.1444 37.8787 43.2984 38.1441C43.4524 38.4095 43.6577 38.6262 43.8968 38.7754C44.1359 38.9247 44.4016 39.0021 44.671 39.001H56.3333C56.6486 38.9998 56.9577 39.1058 57.2247 39.307C57.4917 39.5082 57.7057 39.7961 57.8418 40.1374C57.9779 40.4787 58.0305 40.8594 57.9935 41.2351C57.9565 41.6109 57.8314 41.9664 57.6328 42.2602L41.139 62.6549C41.0153 62.8263 40.8467 62.9421 40.6609 62.9833C40.4751 63.0246 40.2832 62.9888 40.1165 62.8818C39.9499 62.7749 39.8186 62.6031 39.744 62.3947C39.6695 62.1864 39.6561 61.9538 39.7063 61.7351L42.905 49.6983C42.9994 49.3953 43.031 49.0694 42.9974 48.7485C42.9637 48.4276 42.8656 48.1213 42.7116 47.8559C42.5576 47.5905 42.3523 47.3738 42.1132 47.2246C41.8741 47.0753 41.6085 46.9979 41.339 46.999H29.6767Z" stroke="#51A2FF" stroke-width="1.99972" stroke-linecap="round" stroke-linejoin="round"/>
</svg>
