<svg width="86" height="86" viewBox="0 0 86 86" fill="none" xmlns="http://www.w3.org/2000/svg">
<path d="M43 0L80.2391 21.5V64.5L43 86L5.76091 64.5V21.5L43 0Z" fill="#FDC700" fill-opacity="0.1"/>
<path d="M42.0569 24.5876C42.1445 24.4111 42.2799 24.2627 42.4478 24.1588C42.6156 24.055 42.8092 24 43.0068 24C43.2044 24 43.398 24.055 43.5658 24.1588C43.7337 24.2627 43.8691 24.4111 43.9567 24.5876L48.5763 33.9102C48.8806 34.5238 49.3299 35.0547 49.8854 35.4572C50.441 35.8598 51.0863 36.122 51.766 36.2214L62.0971 37.7277C62.2928 37.756 62.4767 37.8382 62.628 37.9652C62.7793 38.0922 62.8919 38.2588 62.953 38.4462C63.0142 38.6336 63.0215 38.8343 62.9742 39.0257C62.9268 39.217 62.8267 39.3913 62.685 39.5289L55.2137 46.7774C54.721 47.2558 54.3523 47.8463 54.1395 48.4981C53.9266 49.1499 53.8759 49.8435 53.9918 50.5192L55.7557 60.7604C55.7902 60.9553 55.7691 61.156 55.6947 61.3395C55.6202 61.5231 55.4955 61.6821 55.3348 61.7984C55.174 61.9147 54.9837 61.9837 54.7855 61.9975C54.5873 62.0112 54.3892 61.9691 54.2138 61.8761L44.9786 57.0385C44.3701 56.7201 43.6931 56.5538 43.0058 56.5538C42.3185 56.5538 41.6415 56.7201 41.033 57.0385L31.7998 61.8761C31.6245 61.9686 31.4266 62.0102 31.2288 61.9962C31.0309 61.9822 30.8409 61.9131 30.6805 61.7969C30.5201 61.6806 30.3956 61.5218 30.3213 61.3386C30.2469 61.1554 30.2257 60.955 30.26 60.7604L32.0218 50.5212C32.1382 49.8452 32.0878 49.1512 31.8749 48.499C31.662 47.8467 31.2931 47.2559 30.7999 46.7774L23.3286 39.5309C23.1858 39.3935 23.0846 39.2189 23.0365 39.0269C22.9885 38.835 22.9955 38.6335 23.0568 38.4454C23.118 38.2572 23.2311 38.09 23.3831 37.9628C23.5351 37.8356 23.7199 37.7534 23.9165 37.7257L34.2456 36.2214C34.926 36.1228 35.5722 35.8609 36.1286 35.4583C36.6849 35.0557 37.1347 34.5244 37.4393 33.9102L42.0569 24.5876Z" stroke="#FDC700" stroke-width="1.99972" stroke-linecap="round" stroke-linejoin="round"/>
</svg>
