<svg width="86" height="86" viewBox="0 0 86 86" fill="none" xmlns="http://www.w3.org/2000/svg">
<path d="M43 0L80.2391 21.5V64.5L43 86L5.76091 64.5V21.5L43 0Z" fill="#FB64B6" fill-opacity="0.1"/>
<path d="M23.005 36.3187C23.005 33.8336 23.6802 31.407 24.9413 29.3593C26.2023 27.3116 27.99 25.7393 30.0682 24.8499C32.1464 23.9605 34.4173 23.7959 36.581 24.3779C38.7447 24.9598 40.6994 26.261 42.1869 28.1095C42.2917 28.2345 42.4184 28.3343 42.5591 28.4025C42.6998 28.4706 42.8516 28.5058 43.0049 28.5058C43.1583 28.5058 43.3101 28.4706 43.4508 28.4025C43.5915 28.3343 43.7182 28.2345 43.8229 28.1095C45.3058 26.249 47.261 24.9369 49.4282 24.3478C51.5954 23.7588 53.8719 23.9207 55.9546 24.8121C58.0374 25.7034 59.8277 27.2819 61.0871 29.3375C62.3466 31.3931 63.0155 33.8282 63.0049 36.3187C63.0049 41.4328 60.0049 45.2516 57.0049 48.6014L46.0209 60.4665C45.6483 60.9444 45.1888 61.3283 44.673 61.5927C44.1573 61.8571 43.597 61.9959 43.0295 61.9999C42.462 62.0039 41.9002 61.873 41.3815 61.616C40.8628 61.3589 40.399 60.9815 40.021 60.5089L29.005 48.6014C26.005 45.2516 23.005 41.4551 23.005 36.3187Z" stroke="#FB64B6" stroke-width="1.99972" stroke-linecap="round" stroke-linejoin="round"/>
</svg>
