<svg width="86" height="86" viewBox="0 0 86 86" fill="none" xmlns="http://www.w3.org/2000/svg">
<path fill-rule="evenodd" clip-rule="evenodd" d="M24.3024 38.6939H33.5398C33.8852 38.6939 34.2165 38.8464 34.4607 39.1178C34.705 39.3893 34.8422 39.7575 34.8422 40.1414V59.5525C34.8422 59.9364 34.705 60.3046 34.4607 60.576C34.2165 60.8475 33.8852 61 33.5398 61H24.3024C23.957 61 23.6257 60.8475 23.3815 60.576C23.1372 60.3046 23 59.9364 23 59.5525V40.1522C23 39.7683 23.1372 39.4001 23.3815 39.1287C23.6257 38.8572 23.957 38.7047 24.3024 38.7047V38.6939ZM43.2395 25.2827C43.2914 24.8468 43.4396 24.4319 43.6708 24.0752C43.9021 23.7184 44.2092 23.4308 44.5647 23.2381C45.1376 22.9653 45.7785 22.9256 46.3751 23.1259C47.0024 23.3246 47.5886 23.6577 48.1008 24.1066C49.0268 24.9358 49.7867 25.9709 50.3318 27.1456C50.8768 28.3203 51.1949 29.6086 51.2657 30.928C51.3187 31.9349 51.3056 32.9448 51.2266 33.9496C51.1723 34.6589 51.0898 35.4008 50.9791 36.1752H57.5563C58.5877 36.211 59.5994 36.4989 60.5193 37.0184C61.2547 37.4279 61.8827 38.0411 62.3427 38.7988C62.8131 39.6053 63.0411 40.5568 62.9939 41.5165C62.9487 42.388 62.7472 43.2406 62.4013 44.0243C62.636 45.013 62.6958 46.0429 62.5772 47.0569C62.4905 47.8352 62.1718 48.5588 61.672 49.1123C61.7166 50.2717 61.5619 51.4299 61.2161 52.5248C60.8946 53.475 60.3952 54.3384 59.7509 55.058C59.7021 55.6696 59.604 56.2752 59.4579 56.8674C59.2938 57.5679 59.0217 58.2315 58.6536 58.8287C57.5368 60.5802 56.6446 60.5404 55.2315 60.4753C55.0329 60.4753 54.8213 60.4753 54.4957 60.4753H41.6864C40.6923 60.5204 39.7029 60.2995 38.8016 59.8311C37.9053 59.2964 37.1269 58.5474 36.5223 57.6382L36.3498 57.0193V40.4273L37.001 40.2355C38.655 39.7397 39.9542 38.1691 40.9603 36.291C41.9332 34.3919 42.6983 32.3703 43.2395 30.2693V25.4709L43.2591 25.2827H43.2395ZM45.2974 25.0004C45.2082 25.0619 45.1327 25.145 45.0764 25.2433C45.02 25.3416 44.9843 25.4528 44.9718 25.5686V30.4069L44.9327 30.6855C44.3483 32.9883 43.5163 35.2045 42.4548 37.2862C41.3641 39.3199 39.9314 41.0642 38.0983 41.8711V56.6828C38.4989 57.2663 39.0046 57.7507 39.583 58.105C40.2435 58.4325 40.9641 58.5825 41.6864 58.5429H54.4957C54.7236 58.5429 55.0199 58.5429 55.2999 58.5718C56.1367 58.608 56.6674 58.6333 57.234 57.7431C57.4864 57.3298 57.6746 56.8723 57.7908 56.3897C57.9317 55.7978 58.0179 55.1916 58.048 54.5803L58.3183 53.9398C58.8833 53.3672 59.3184 52.6542 59.5881 51.859C59.8914 50.8496 60.0023 49.7811 59.9137 48.7215L59.8811 48.1425L60.324 47.8385C60.4782 47.7111 60.6058 47.5481 60.6979 47.3607C60.7901 47.1733 60.8447 46.9659 60.858 46.7529C60.9451 45.8862 60.8697 45.0089 60.6366 44.1763L60.7049 43.4743C61.0241 42.8573 61.2144 42.1684 61.2617 41.4586C61.2895 40.8987 61.1561 40.3435 60.8808 39.8736C60.5832 39.3935 60.1811 39.005 59.7118 38.7445C59.0295 38.3589 58.2791 38.1452 57.514 38.1185H48.8888L49.0841 36.9677C49.2657 35.9157 49.3983 34.854 49.4814 33.7868C49.5562 32.8785 49.5703 31.9653 49.5237 31.0546C49.4739 30.0075 49.2274 28.9836 48.8001 28.0487C48.3728 27.1138 47.7741 26.2887 47.0426 25.6265C46.7131 25.3338 46.3362 25.1139 45.9323 24.9787C45.7216 24.8959 45.4918 24.8959 45.2811 24.9787L45.2974 25.0004ZM30.3717 53.871C30.702 53.871 31.025 53.9799 31.2997 54.1839C31.5744 54.3879 31.7884 54.6778 31.9149 55.017C32.0413 55.3562 32.0744 55.7295 32.0099 56.0896C31.9455 56.4497 31.7864 56.7805 31.5528 57.0401C31.3192 57.2998 31.0216 57.4766 30.6975 57.5482C30.3735 57.6198 30.0377 57.5831 29.7325 57.4426C29.4272 57.3021 29.1664 57.0641 28.9828 56.7588C28.7993 56.4535 28.7013 56.0946 28.7013 55.7274C28.7013 55.2351 28.8773 54.7629 29.1906 54.4147C29.5038 54.0666 29.9287 53.871 30.3717 53.871Z" fill="#C27AFF"/>
<path d="M43 0L80.2391 21.5V64.5L43 86L5.76091 64.5V21.5L43 0Z" fill="#C27AFF" fill-opacity="0.1"/>
</svg>
