<svg width="17" height="16" viewBox="0 0 17 16" fill="none" xmlns="http://www.w3.org/2000/svg">
<path d="M7.13104 0.820138C7.48634 -0.273351 9.03333 -0.273349 9.38863 0.82014L10.5248 4.31706C10.6837 4.80609 11.1395 5.13718 11.6536 5.13718H15.3305C16.4803 5.13718 16.9583 6.60846 16.0282 7.28427L13.0535 9.44549C12.6375 9.74772 12.4634 10.2834 12.6223 10.7725L13.7586 14.2694C14.1139 15.3629 12.8623 16.2722 11.9321 15.5964L8.95747 13.4351C8.54148 13.1329 7.97819 13.1329 7.5622 13.4351L4.58754 15.5964C3.65736 16.2722 2.40582 15.3629 2.76112 14.2694L3.89733 10.7725C4.05623 10.2834 3.88216 9.74772 3.46617 9.44549L0.491512 7.28427C-0.438665 6.60846 0.0393848 5.13718 1.18915 5.13718H4.86603C5.38022 5.13718 5.83593 4.80608 5.99482 4.31706L7.13104 0.820138Z" fill="#01AAFF"/>
</svg>
