<svg width="20" height="20" viewBox="0 0 20 20" fill="none" xmlns="http://www.w3.org/2000/svg">
<path d="M3.33333 11.6663C3.17564 11.6668 3.02103 11.6226 2.88746 11.5387C2.7539 11.4549 2.64686 11.3349 2.57879 11.1926C2.51072 11.0504 2.48441 10.8918 2.50292 10.7351C2.52142 10.5785 2.58398 10.4304 2.68333 10.3079L10.9333 1.8079C10.9952 1.73647 11.0795 1.6882 11.1725 1.67101C11.2654 1.65383 11.3614 1.66875 11.4448 1.71332C11.5281 1.7579 11.5938 1.82948 11.6311 1.91633C11.6684 2.00317 11.6751 2.10011 11.65 2.19124L10.05 7.2079C10.0028 7.33417 9.98698 7.47 10.0038 7.60374C10.0207 7.73748 10.0697 7.86514 10.1467 7.97576C10.2238 8.08638 10.3265 8.17667 10.4461 8.23887C10.5656 8.30108 10.6985 8.33334 10.8333 8.3329H16.6667C16.8244 8.33237 16.979 8.37658 17.1125 8.46042C17.2461 8.54426 17.3531 8.66427 17.4212 8.80652C17.4893 8.94877 17.5156 9.10741 17.4971 9.26402C17.4786 9.42063 17.416 9.56877 17.3167 9.69124L9.06667 18.1913C9.00478 18.2627 8.92045 18.311 8.82752 18.3282C8.73458 18.3453 8.63856 18.3304 8.55523 18.2858C8.47189 18.2413 8.40618 18.1697 8.36889 18.0828C8.3316 17.996 8.32494 17.8991 8.35 17.8079L9.95 12.7913C9.99718 12.665 10.013 12.5292 9.99617 12.3954C9.97932 12.2617 9.93028 12.134 9.85326 12.0234C9.77623 11.9128 9.67352 11.8225 9.55394 11.7603C9.43435 11.6981 9.30146 11.6658 9.16667 11.6663H3.33333Z" stroke="#51A2FF" stroke-width="1.66667" stroke-linecap="round" stroke-linejoin="round"/>
</svg>
