<svg width="17" height="15" viewBox="0 0 17 15" fill="none" xmlns="http://www.w3.org/2000/svg">
<path fill-rule="evenodd" clip-rule="evenodd" d="M16.0857 10.6733L10.7216 14.0046C10.2017 14.324 9.63327 14.4039 9.02849 14.2419L4.33404 12.9837C4.25856 12.9636 4.17817 12.9742 4.11049 13.0132L1.81438 14.3391L0 11.199L4.26819 8.72735C4.86779 8.38024 5.51588 8.0893 6.2004 8.3111C6.40316 8.37695 6.64402 8.46013 6.89876 8.5483C7.74962 8.84185 8.80842 9.20734 9.89495 9.44579C10.0648 9.48287 10.2103 9.58945 10.3039 9.74507C10.356 9.8298 10.3902 9.92426 10.4045 10.0227C10.4188 10.1211 10.4129 10.2214 10.3871 10.3174C10.29 10.6773 9.92786 10.9044 9.56221 10.8342C9.55703 10.833 5.8919 9.85266 5.8919 9.85266C5.73592 9.81036 5.57476 9.90378 5.53146 10.0602C5.48988 10.2171 5.58346 10.3782 5.7394 10.4202L9.3612 11.3902C10.1722 11.6081 10.8428 11.6459 11.6712 11.1629L14.3978 9.57521C15.5485 8.90457 16.3439 9.05188 16.5969 9.47244C16.7893 9.79437 16.6749 10.3099 16.0857 10.6733ZM11.0564 3.37944L8.12928 6.99873L8.43478 4.40178C8.43482 4.40097 8.43485 4.39999 8.43504 4.39953L8.43511 4.39914C8.43481 4.399 8.43449 4.39889 8.43416 4.39882H6.3624L9.13025 0.853853L8.9846 3.37944H11.0564ZM8.70966 0C6.5435 0 4.78288 1.76101 4.78288 3.92557C4.78288 6.09033 6.54353 7.85131 8.70966 7.85131C10.8741 7.85131 12.6347 6.09033 12.6347 3.92557C12.6347 1.76098 10.8741 0 8.70966 0Z" fill="#01AAFF"/>
</svg>
