<svg width="10" height="10" viewBox="0 0 10 10" fill="none" xmlns="http://www.w3.org/2000/svg">
<g clip-path="url(#clip0_1_484)">
<path d="M1.461 0.906686V8.58845C1.46127 8.75942 1.50983 8.92683 1.6011 9.07139C1.69237 9.21596 1.82263 9.33179 1.97687 9.40555C2.1311 9.4793 2.30304 9.50798 2.47287 9.48826C2.64269 9.46855 2.80349 9.40126 2.93673 9.29413L7.69757 5.45325C7.80297 5.3683 7.888 5.26082 7.94641 5.13871C8.00483 5.01659 8.03516 4.88294 8.03516 4.74757C8.03516 4.6122 8.00483 4.47855 7.94641 4.35643C7.888 4.23432 7.80297 4.12684 7.69757 4.04189L2.93643 0.201008C2.8032 0.093673 2.64235 0.02617 2.47242 0.00627907C2.30249 -0.0136119 2.1304 0.0149188 1.97598 0.0885828C1.82178 0.162567 1.69162 0.278619 1.6005 0.423363C1.50939 0.568107 1.46103 0.735652 1.461 0.906686Z" fill="white"/>
</g>
<defs>
<clipPath id="clip0_1_484">
<rect width="9.49507" height="9.49507" fill="white" transform="matrix(-1 0 0 1 9.49512 0)"/>
</clipPath>
</defs>
</svg>
