<svg width="10" height="10" viewBox="0 0 10 10" fill="none" xmlns="http://www.w3.org/2000/svg">
<g clip-path="url(#clip0_1_478)">
<path d="M8.03451 0.906686V8.58845C8.03425 8.75942 7.98568 8.92683 7.89441 9.07139C7.80314 9.21596 7.67288 9.33179 7.51865 9.40555C7.36441 9.4793 7.19247 9.50798 7.02265 9.48826C6.85282 9.46855 6.69202 9.40126 6.55878 9.29413L1.79795 5.45325C1.69255 5.3683 1.60752 5.26082 1.5491 5.13871C1.49068 5.01659 1.46036 4.88294 1.46036 4.74757C1.46036 4.6122 1.49068 4.47855 1.5491 4.35643C1.60752 4.23432 1.69255 4.12684 1.79795 4.04189L6.55908 0.201008C6.69231 0.093673 6.85316 0.02617 7.02309 0.00627907C7.19302 -0.0136119 7.36511 0.0149188 7.51953 0.0885828C7.67374 0.162567 7.8039 0.278619 7.89501 0.423363C7.98612 0.568107 8.03448 0.735652 8.03451 0.906686Z" fill="white"/>
</g>
<defs>
<clipPath id="clip0_1_478">
<rect width="9.49507" height="9.49507" fill="white"/>
</clipPath>
</defs>
</svg>
