<svg width="41" height="54" viewBox="0 0 41 54" fill="none" xmlns="http://www.w3.org/2000/svg">
<path d="M37.8673 43.2316C37.1901 45.7302 36.2773 46.6743 35.2584 46.6113C33.8215 51.1428 32.0194 54.0001 32.0194 54.0001H10.3119L14.293 43.2379C14.293 43.2379 15.3177 39.9967 15.5003 36.4092C15.6828 32.8155 14.293 28.5736 13.1505 27.6421C13.1505 27.6421 15.5651 32.2176 14.2989 38.2092C13.0327 44.2008 10.3767 40.5631 10.3767 37.6302C10.3767 37.6302 6.96687 46.0197 6.09527 37.3155C6.09527 37.3155 3.48048 42.8603 1.34271 40.0344C2.91512 30.2918 7.93269 25.7037 7.93269 25.7037L9.95267 20.4862C9.95267 20.4862 32.5553 21.5372 33.2267 21.6883C33.2267 21.6883 33.6625 22.2169 34.2808 23.1862C34.7225 23.8722 35.2643 24.7848 35.8061 25.8799C37.7613 29.7946 39.799 36.1009 37.8673 43.2316Z" fill="#10923E"/>
<path d="M15.5121 35.7546C15.5121 35.9749 15.5062 36.1889 15.4944 36.4029C15.3118 39.9966 14.2871 43.2315 14.2871 43.2315L14.1693 43.5462L14.0339 43.9175L10.3119 53.9937H0C0.441688 51.6525 0.712589 49.7014 0.871597 48.1154V48.1091L0.877486 48.0714L1.0306 47.0518L1.32506 40.0972C1.33095 40.0721 1.33095 40.0469 1.33684 40.0217C3.47461 42.8539 6.0894 37.3028 6.0894 37.3028C6.38975 40.2735 6.98455 41.2553 7.63825 41.2553C7.65592 41.2553 7.6677 41.2553 7.68536 41.2553H7.69125C7.70892 41.2553 7.72659 41.249 7.73837 41.249C7.75603 41.249 7.76781 41.2427 7.78548 41.2427C7.79726 41.2427 7.80904 41.2364 7.82081 41.2364C7.8267 41.2364 7.83259 41.2301 7.83848 41.2301C7.84437 41.2301 7.84437 41.2301 7.85026 41.2238C7.86204 41.2175 7.86793 41.2175 7.87971 41.2112C7.96804 41.1798 8.05638 41.1357 8.14472 41.0791C8.1565 41.0728 8.17416 41.0602 8.18594 41.0476C8.20361 41.035 8.22128 41.0224 8.23895 41.0098C8.27428 40.9784 8.3155 40.9532 8.35084 40.9154C8.36262 40.9028 8.3744 40.8903 8.39206 40.8777C8.40973 40.8651 8.4274 40.8462 8.44507 40.8336C8.46273 40.8147 8.4804 40.8021 8.49218 40.7833C8.50396 40.7707 8.51574 40.7581 8.5334 40.7455C8.53929 40.7392 8.53929 40.7392 8.54518 40.7329C8.58052 40.6952 8.60996 40.6637 8.6453 40.6259C8.74541 40.5126 8.84553 40.3868 8.93976 40.2609C8.95153 40.242 8.9692 40.2231 8.98098 40.198C8.98687 40.1917 8.98687 40.1854 8.99276 40.1791C9.01043 40.1539 9.02809 40.1287 9.05165 40.0972C9.10465 40.0154 9.16354 39.9336 9.21655 39.8518C9.24599 39.8077 9.26955 39.77 9.299 39.7259C9.31077 39.7007 9.32844 39.6819 9.34022 39.6567C9.48745 39.4112 9.62879 39.1595 9.75246 38.9203C9.76424 38.8952 9.78191 38.8637 9.79368 38.8385C9.97625 38.4924 10.1176 38.1777 10.2177 37.9511C10.2236 37.9385 10.2236 37.9322 10.2295 37.9196C10.2413 37.9007 10.2472 37.8819 10.253 37.863C10.2589 37.8504 10.2648 37.8378 10.2707 37.8252C10.3296 37.6868 10.3649 37.6112 10.3649 37.6112C10.3649 37.6301 10.3649 37.6427 10.3649 37.6616C10.3649 37.7182 10.3649 37.7749 10.3708 37.8252C10.3708 37.8504 10.3708 37.8756 10.3767 37.907C10.3767 37.9196 10.3767 37.9322 10.3767 37.9448C10.3767 37.97 10.3826 37.9889 10.3826 38.014C10.3826 38.0329 10.3885 38.0518 10.3885 38.077C10.3885 38.1021 10.3944 38.1336 10.3944 38.1588C10.4003 38.1903 10.4003 38.2154 10.4062 38.2469C10.412 38.2721 10.412 38.3035 10.4179 38.3287C10.4238 38.3602 10.4238 38.3917 10.4297 38.4231C10.4415 38.5049 10.4533 38.5805 10.4709 38.6623C10.4827 38.7315 10.5004 38.807 10.5181 38.8763C10.5239 38.8952 10.5298 38.914 10.5298 38.9329C10.5416 38.9833 10.5534 39.0273 10.5652 39.0777C10.5769 39.1343 10.5946 39.1847 10.6123 39.2413C10.6182 39.2665 10.6299 39.2917 10.6358 39.3231C10.6535 39.3735 10.6712 39.4301 10.6888 39.4805C10.7065 39.5308 10.7242 39.5812 10.7418 39.6315C10.7477 39.6567 10.7595 39.6756 10.7713 39.7007C10.7831 39.7259 10.7948 39.7511 10.8007 39.7826C10.8125 39.8077 10.8184 39.8329 10.8302 39.8581C10.8714 39.9588 10.9126 40.0532 10.9597 40.1413C10.9715 40.1665 10.9833 40.1854 10.9951 40.2105C11.0069 40.2357 11.0186 40.2546 11.0304 40.2798C11.0422 40.2986 11.054 40.3238 11.0657 40.3427C11.0893 40.3868 11.1129 40.4308 11.1423 40.4686C11.1541 40.4875 11.1659 40.5126 11.1776 40.5315C11.2542 40.6511 11.3366 40.7644 11.4191 40.8651C11.4309 40.884 11.4485 40.8965 11.4603 40.9154C11.5428 41.0098 11.6311 41.0979 11.7253 41.1672C11.743 41.1798 11.7548 41.1924 11.7724 41.2049C11.8667 41.2742 11.9609 41.3308 12.061 41.3686C12.0728 41.3749 12.0905 41.3812 12.1022 41.3812C12.2318 41.4252 12.3555 41.4441 12.4909 41.4252C12.5027 41.4252 12.5204 41.4189 12.5321 41.4189C12.5439 41.4189 12.5616 41.4126 12.5734 41.4126C12.5793 41.4126 12.5793 41.4126 12.5852 41.4126C12.5969 41.4063 12.6087 41.4063 12.6205 41.4C12.6382 41.3938 12.6558 41.3875 12.6676 41.3812C12.6794 41.3749 12.697 41.3686 12.7088 41.3623C12.7324 41.356 12.75 41.3434 12.7736 41.3308C12.7972 41.3182 12.8148 41.3056 12.8384 41.2931C12.8561 41.2805 12.8737 41.2679 12.8973 41.2553C12.9091 41.249 12.9267 41.2364 12.9385 41.2301L12.9444 41.2238C12.9621 41.2112 12.9738 41.1986 12.9915 41.1861C13.0033 41.1735 13.0209 41.1609 13.0327 41.1483C13.0622 41.1231 13.0916 41.0917 13.1211 41.0602L13.127 41.0539C13.1505 41.0287 13.18 40.9973 13.2035 40.9658C13.2506 40.9091 13.2977 40.8462 13.3449 40.7833C13.3625 40.7518 13.3861 40.7203 13.4037 40.6889C13.4155 40.67 13.4273 40.6448 13.445 40.6259C13.4567 40.607 13.4744 40.5819 13.4862 40.563C13.5215 40.5 13.5569 40.4371 13.5922 40.3679C13.5981 40.3616 13.5981 40.3553 13.604 40.349C13.6158 40.3238 13.6275 40.2986 13.6393 40.2735C13.6511 40.2483 13.6629 40.2231 13.6746 40.1917C13.6864 40.1728 13.6923 40.1476 13.7041 40.1224C13.71 40.1035 13.7159 40.091 13.7276 40.0721C13.7394 40.0532 13.7394 40.0343 13.7512 40.0217C13.763 39.9966 13.7689 39.9714 13.7807 39.9462C13.8042 39.8833 13.8337 39.814 13.8572 39.7448C13.869 39.7133 13.8808 39.6819 13.8925 39.6441C13.9043 39.6063 13.9161 39.5749 13.9279 39.5371C13.9397 39.5056 13.9514 39.4742 13.9573 39.4364C13.9691 39.3986 13.9809 39.3672 13.9927 39.3294C14.028 39.2161 14.0633 39.1028 14.0928 38.9833C14.1104 38.9077 14.134 38.8322 14.1517 38.7567C14.1693 38.6812 14.1929 38.5993 14.2106 38.5175C14.2164 38.4798 14.2282 38.4483 14.2341 38.4105C14.2518 38.3413 14.2636 38.2658 14.2812 38.1903C15.5474 32.1987 13.1328 27.6231 13.1328 27.6231C13.1446 27.6357 13.1564 27.642 13.1682 27.6546C13.18 27.6672 13.1917 27.6735 13.2035 27.6861C13.233 27.7113 13.2565 27.7364 13.286 27.7679C13.3036 27.7868 13.3213 27.8057 13.339 27.8245C13.3449 27.8308 13.3449 27.8308 13.3507 27.8371C13.3743 27.8623 13.3979 27.8938 13.4214 27.9252C13.445 27.9567 13.4744 27.9882 13.498 28.0259C13.5098 28.0385 13.5215 28.0574 13.5333 28.0763C13.5569 28.1078 13.5745 28.1392 13.5981 28.1707C13.6158 28.1959 13.6334 28.221 13.6511 28.2462C13.6688 28.2714 13.6864 28.3029 13.7041 28.328C13.7218 28.3532 13.7394 28.3847 13.7571 28.4161C13.7748 28.4476 13.7924 28.4728 13.8101 28.5043C13.8278 28.5357 13.8454 28.5672 13.8631 28.5987C13.8808 28.6301 13.8984 28.6616 13.9161 28.6931C13.9338 28.7245 13.9514 28.756 13.9691 28.7938C14.0044 28.863 14.0398 28.9322 14.0692 29.0015C14.0869 29.0392 14.1046 29.0707 14.1163 29.1085C14.134 29.1399 14.1458 29.1777 14.1634 29.2091C14.187 29.2595 14.2106 29.3161 14.2341 29.3665C14.2636 29.4294 14.2871 29.4924 14.3166 29.5616C14.3166 29.5616 14.3166 29.5616 14.3166 29.5679C14.346 29.6371 14.3755 29.7126 14.4049 29.7882C14.4874 30.0022 14.5698 30.2287 14.6464 30.4679C14.664 30.5119 14.6758 30.556 14.6876 30.6063C14.7053 30.6504 14.717 30.7008 14.7288 30.7448C14.7877 30.9399 14.8466 31.1413 14.8996 31.349C14.9232 31.4371 14.9467 31.5252 14.9703 31.6133C14.982 31.67 14.9997 31.7266 15.0115 31.7833C15.035 31.8777 15.0586 31.9721 15.0763 32.0728C15.0939 32.1546 15.1116 32.2427 15.1293 32.3245C15.1882 32.614 15.2412 32.9035 15.2942 33.2056C15.3001 33.2497 15.3059 33.2938 15.3118 33.3315C15.3648 33.6966 15.412 34.0679 15.4473 34.4329C15.4532 34.4707 15.4532 34.5147 15.4591 34.5588C15.4591 34.584 15.465 34.6029 15.465 34.628C15.4708 34.6721 15.4708 34.7224 15.4767 34.7665C15.4826 34.8546 15.4885 34.9364 15.4944 35.0245C15.4944 35.0686 15.5003 35.1063 15.5003 35.1504C15.5062 35.2574 15.5062 35.3644 15.5121 35.4714C15.5121 35.5595 15.5121 35.6539 15.5121 35.7546Z" fill="#4B80B2"/>
<path d="M34.2867 23.186C33.6625 22.2168 33.2325 21.6881 33.2325 21.6881C33.5211 21.7511 33.9216 22.4371 34.2867 23.186Z" fill="#4B80B2"/>
<path d="M37.8674 43.2315L36.6012 54H32.0194C32.0194 54 33.8215 51.1363 35.2585 46.6112C36.0947 43.9804 36.8014 40.7958 36.9722 37.2776L37.8674 43.2315Z" fill="#4B80B2"/>
<path d="M36.8191 54.0002H32.2079C32.2079 54.0002 34.0217 51.1239 35.4646 46.5673C36.3009 43.9239 37.0193 40.7142 37.1842 37.1771C37.3609 33.426 36.9251 29.2974 35.3586 25.0806C35.3586 25.0806 35.6118 25.2883 36.0182 25.71C38.3385 28.1205 45.4997 37.4792 36.8191 54.0002Z" fill="#106B31"/>
<path d="M15.5886 36.2959C15.4061 39.9085 14.3755 43.1686 14.3755 43.1686C14.3755 43.1686 14.3755 43.1686 14.3755 43.1749L14.0398 43.9176L13.8808 44.2763L11.7136 48.0588L2.16133 50.8469L1.0365 47.0581L1.33096 40.1036V40.0595L1.33685 39.9274C1.34274 39.9336 1.34273 39.9399 1.34862 39.9462L1.35451 39.9525C3.50406 42.7847 6.13063 37.2148 6.13063 37.2148C6.66654 42.5455 8.14472 41.5008 9.22244 39.8707C9.77602 39.0336 10.2177 38.0455 10.3767 37.6805C10.4179 37.5861 10.4356 37.5357 10.4356 37.5357C10.4356 39.6945 11.8667 42.2308 13.1328 41.0791C13.5981 40.6574 14.0398 39.7385 14.3814 38.1211C15.4178 33.212 13.9986 29.2406 13.4391 27.9441C13.3095 27.6483 13.2271 27.491 13.2271 27.491C14.3755 28.4162 15.7712 32.6833 15.5886 36.2959Z" fill="#11843A"/>
<path d="M14.3755 43.175L10.3767 54.0002H0C0.441688 51.6589 0.712589 49.7079 0.871597 48.1219V48.1156L0.877486 48.0778L1.0306 47.0582C2.82091 48.9715 5.27669 43.6219 5.27669 43.6219C6.00695 51.9862 9.82902 43.6219 9.82902 43.6219C10.147 50.4254 13.3331 45.0883 14.1752 43.5526C14.2812 43.3575 14.3519 43.2254 14.3696 43.1876C14.3696 43.1813 14.3696 43.1813 14.3755 43.175Z" fill="#106B31"/>
<path d="M36.8249 29.8385C36.7543 29.807 36.6836 29.7756 36.6129 29.7441C34.1454 28.6427 33.2267 27.5917 32.9558 27.2015C32.8851 27.1008 32.8556 27.0441 32.8556 27.0441C32.8498 27.0567 32.8439 27.063 32.838 27.0756C32.3845 27.8497 32.8556 30.5497 32.8556 30.5497C30.2762 30.8266 27.4906 25.9679 27.4906 25.9679C25.4765 30.9714 20.7829 30.5434 20.7829 30.5434C21.5013 26.6728 20.4236 25.6469 20.4236 25.6469C17.7146 29.5742 13.4096 28.9259 13.4096 28.9259C14.7995 27.3085 14.5462 24.1364 14.5462 24.1364C12.5498 26.377 7.60879 28.0889 7.53223 28.1203C7.60879 28.0889 7.69123 27.7616 7.76779 27.277C7.99747 25.8798 8.22126 23.205 8.26837 22.9029C8.91029 19.1833 9.74655 15.47 10.9951 11.9204C11.6016 10.1959 12.2966 8.41476 13.2271 6.82875C13.2977 6.70917 13.3743 6.5833 13.445 6.46372C21.1774 -6.08592 32.4022 3.49309 32.6201 3.55603C33.0147 3.92106 33.3975 4.31127 33.7449 4.71407C34.9051 6.05463 35.7001 7.53994 35.4822 8.86162V8.86791C34.9993 11.7504 34.8226 14.4315 34.8285 16.8546C34.8285 16.9427 34.8285 17.0245 34.8285 17.1064C34.8285 17.27 34.8285 17.4336 34.8344 17.5973C34.9757 25.049 36.8249 29.8385 36.8249 29.8385Z" fill="#F4E1EF"/>
<path d="M24.2928 13.1855C24.2928 13.1855 26.5955 13.7079 28.5448 11.4925C29.3398 10.4855 30.0524 9.12605 30.0524 9.12605C30.0524 9.12605 31.7544 6.78479 34.911 8.69808C38.0676 10.6114 37.5317 17.8176 35.8179 19.6995L35.6412 19.2967L35.6177 19.6995C35.6177 19.6995 35.0759 15.9988 34.0806 17.44C34.0806 17.44 30.9829 19.4162 27.3611 17.9246C23.7392 16.4267 23.4094 13.4687 24.2928 13.1855Z" fill="#FFB83C"/>
<path d="M35.2702 18.1576C35.2702 18.1576 33.368 16.2443 30.5412 16.8485C27.7144 17.4527 24.9583 16.0303 24.8994 14.1863C24.8994 13.5254 25.9948 14.7527 26.3599 15.0737C26.7251 15.3947 27.5672 16.1625 31.2185 15.9107C34.8698 15.659 35.2702 18.1576 35.2702 18.1576Z" fill="#1B222D"/>
<path d="M26.3776 9.27705C26.1774 10.6743 25.0879 11.2973 24.0985 11.2973C23.1091 11.2973 22.0255 10.6743 21.8194 9.27705C21.7899 9.07565 21.8311 8.88055 21.9254 8.76097C21.9843 8.68545 22.0608 8.64768 22.1492 8.64768H22.155C22.3435 8.64768 22.4907 8.84279 22.532 9.14488C22.6733 10.1015 23.4153 10.5232 24.0985 10.5232C24.7757 10.5232 25.5237 10.0952 25.665 9.14488C25.7121 8.83649 25.8593 8.64768 26.0478 8.64139C26.1361 8.64139 26.2127 8.67915 26.2716 8.75468C26.3658 8.88055 26.407 9.07565 26.3776 9.27705Z" fill="#1B222D"/>
<path d="M32.9145 11.9142C33.2333 11.9142 33.4917 11.6381 33.4917 11.2974C33.4917 10.9568 33.2333 10.6807 32.9145 10.6807C32.5958 10.6807 32.3374 10.9568 32.3374 11.2974C32.3374 11.6381 32.5958 11.9142 32.9145 11.9142Z" fill="#1B222D"/>
</svg>
