<svg width="26" height="15" viewBox="0 0 26 15" fill="none" xmlns="http://www.w3.org/2000/svg">
<path d="M15.0335 2.00278L13.9087 2.84395L14.3386 4.21085C14.3739 4.316 14.3327 4.43115 14.2502 4.49625C14.209 4.52629 14.156 4.54631 14.103 4.54631C14.05 4.54631 14.0029 4.53129 13.9558 4.49625L12.8309 3.65508L11.7061 4.49625C11.6178 4.56134 11.5 4.56134 11.4175 4.49625C11.3292 4.43115 11.2939 4.316 11.3292 4.21085L11.7591 2.84395L10.6225 2.00278C10.5342 1.93769 10.4988 1.82253 10.5342 1.71739C10.5695 1.61224 10.6637 1.54214 10.7697 1.54214H12.1655L12.5954 0.175243C12.6307 0.0700974 12.7249 0 12.8309 0C12.937 0 13.0312 0.0700974 13.0665 0.175243L13.4964 1.54214H14.8922C14.9982 1.54214 15.0924 1.61224 15.1277 1.71739C15.1572 1.82253 15.1218 1.93769 15.0335 2.00278Z" fill="#106B31"/>
<path d="M24.9391 6.94467C24.7624 7.07485 24.5622 7.08987 24.3737 7.01977C24.2442 6.97471 24.203 7.00976 24.1441 7.11491C23.1841 8.84231 22.2242 10.5747 21.2643 12.3021C21.0405 12.7127 20.8108 13.1182 20.587 13.5288C20.2925 13.1233 19.845 13.0532 19.4151 12.9831C19.1029 12.933 18.7967 12.8879 18.4846 12.8479C18.0429 12.7928 17.6012 12.7427 17.1536 12.7027C16.4293 12.6376 15.7049 12.5975 14.9805 12.5625C13.4434 12.4874 11.9005 12.4774 10.3634 12.5525C9.58015 12.5925 8.79689 12.6476 8.01952 12.7377C7.54839 12.7928 7.08314 12.8529 6.6179 12.928C6.32933 12.973 6.04076 13.0231 5.75808 13.0782C5.46951 13.1333 5.19861 13.2384 5.03371 13.5589C4.86882 13.2785 4.7157 13.0131 4.56258 12.7477C3.39653 10.7349 2.22458 8.72214 1.05853 6.70934C0.999634 6.6092 0.964298 6.51407 0.805291 6.57416C0.504943 6.6793 0.204596 6.54411 0.0691447 6.26873C-0.0721953 5.99335 0.0102534 5.62283 0.251709 5.44258C0.475498 5.27235 0.822958 5.28737 1.03497 5.48264C1.26465 5.69293 1.32943 6.04342 1.14686 6.31379C1.05264 6.44898 1.08208 6.49905 1.18809 6.58918C2.60149 7.79085 4.009 8.98751 5.41062 10.1992C5.56963 10.3344 5.61674 10.3344 5.68741 10.1241C5.99954 9.20781 6.32933 8.29655 6.64735 7.38027C6.66501 7.3302 6.68268 7.28014 6.70624 7.22506C6.79457 7.23507 6.8358 7.31018 6.8888 7.36025C8.10786 8.59196 9.32692 9.82367 10.546 11.0604C10.8463 11.3708 11.1526 11.6762 11.4529 11.9867C11.4765 12.0067 11.4941 12.0267 11.5118 12.0417C11.5942 12.1068 11.6355 12.1018 11.6826 12.0317C11.7002 12.0067 11.7179 11.9717 11.7415 11.9316C11.9123 11.6011 12.083 11.2707 12.2538 10.9402C12.4011 10.6548 12.5542 10.3694 12.7073 10.089C12.7426 10.0139 12.7662 9.92881 12.8604 9.86873C13.0783 10.2643 13.3021 10.6548 13.52 11.0504C13.6496 11.2807 13.7791 11.511 13.9028 11.7463C14.103 12.1118 14.103 12.1169 14.3975 11.8064L14.8627 11.3308C16.1583 9.9939 17.454 8.65705 18.7496 7.3252C18.8085 7.26511 18.8674 7.21004 18.9498 7.12993C19.2089 7.83591 19.4622 8.52186 19.7154 9.20781C19.8273 9.51324 19.951 9.81866 20.057 10.1291C20.1041 10.2693 20.1453 10.2793 20.2572 10.1842C21.2054 9.35802 22.1594 8.54189 23.1135 7.72075C23.3961 7.48041 23.6729 7.23507 23.9556 6.99975C24.0675 6.90461 24.1146 6.83952 24.0322 6.6793C23.8732 6.37888 24.0027 6.00837 24.2913 5.84815C24.5916 5.68292 24.9568 5.78306 25.1334 6.07847C25.2866 6.36386 25.2041 6.74439 24.9391 6.94467Z" fill="#106B31"/>
<path d="M20.3809 9.25286C20.1276 8.47178 19.8862 7.72074 19.6447 6.96969C19.5564 6.69431 19.4563 6.42393 19.3856 6.14355C19.3326 5.94827 19.2796 5.98833 19.1736 6.09848C18.1547 7.13492 17.13 8.16635 16.1053 9.20279C15.5576 9.75356 15.0099 10.2943 14.4681 10.8501C14.3445 10.9753 14.3091 10.9452 14.2267 10.81C13.7732 10.039 13.3139 9.27289 12.8368 8.47178C12.666 8.75718 12.5011 9.01754 12.3421 9.28291C12.0418 9.7836 11.7414 10.2843 11.4529 10.79C11.3469 10.9753 11.288 10.9402 11.1584 10.815C9.5919 9.22783 8.01949 7.64563 6.45297 6.06343C6.42942 6.0384 6.39997 6.01336 6.34108 5.95829C5.97006 7.06482 5.60493 8.14633 5.22803 9.2779C5.01013 9.05259 4.81579 8.85231 4.62144 8.64702C4.539 8.5619 4.61555 8.48179 4.63322 8.40669C4.98657 7.15495 5.33992 5.90822 5.69916 4.66149C5.74038 4.52129 5.74627 4.46622 5.57549 4.42616C5.28103 4.36107 5.11024 4.09069 5.12202 3.77526C5.1338 3.47484 5.31637 3.24953 5.61671 3.17943C5.87584 3.11434 6.15852 3.24953 6.29397 3.49987C6.43531 3.76524 6.39408 4.0957 6.15263 4.28597C6.01129 4.39612 6.05251 4.44619 6.15263 4.54132C7.82515 6.19862 9.49179 7.85592 11.1584 9.51323C11.1702 9.52324 11.1879 9.52825 11.2173 9.54327C11.7473 8.5619 12.2833 7.58054 12.8368 6.55412C13.1136 7.0498 13.3669 7.51545 13.626 7.9811C13.891 8.45676 14.156 8.93242 14.4151 9.41309C14.4858 9.54327 14.5211 9.58332 14.6507 9.45815C16.2643 7.81086 17.8897 6.16858 19.5093 4.53631C19.627 4.41615 19.6094 4.36608 19.5034 4.25592C19.256 4.01058 19.2619 3.62004 19.4916 3.36469C19.7154 3.11934 20.0864 3.09431 20.3396 3.3046C20.6046 3.52491 20.6518 3.91044 20.4515 4.19083C20.3632 4.31601 20.2395 4.41615 20.0923 4.42115C19.8803 4.43617 19.9156 4.53131 19.9568 4.67651C20.322 5.8982 20.6753 7.1199 21.0463 8.3416C21.0993 8.52185 21.0993 8.63701 20.9403 8.75717C20.7519 8.90238 20.587 9.06761 20.3809 9.25286Z" fill="#106B31"/>
<path d="M13.2373 4.31102C13.0548 4.01561 12.9723 3.75524 13.0253 3.48487C13.0018 3.48487 12.9841 3.48487 12.9605 3.48487C12.8604 3.48487 12.7662 3.47986 12.6661 3.47485C12.7191 3.62506 12.725 3.73522 12.6425 3.88042C11.9299 5.13216 11.2232 6.3889 10.5106 7.63563C10.4459 7.75079 10.4341 7.82089 10.5519 7.90601C10.6932 8.01115 10.8287 8.12631 10.9523 8.25649C11.076 8.38167 11.1231 8.33661 11.1997 8.20643C11.4235 7.80587 11.659 7.41032 11.8887 7.01477C12.2008 6.47903 12.513 5.94328 12.8369 5.3775C12.937 5.54273 13.0194 5.68292 13.1019 5.82312C13.5671 6.61421 14.0324 7.41032 14.4858 8.20643C14.5683 8.35163 14.6331 8.37666 14.745 8.24147C14.8451 8.12131 14.957 8.01115 15.0747 7.91602C15.2102 7.80587 15.2043 7.71074 15.1219 7.56554C14.4858 6.47903 13.891 5.37249 13.2373 4.31102Z" fill="#106B31"/>
<path d="M20.4633 14.3199C20.4221 14.2999 20.3809 14.2799 20.3397 14.2598C20.0217 14.1096 19.6919 13.9995 19.3562 13.9093C18.6554 13.7291 17.931 13.659 17.2125 13.5839C15.2455 13.3736 13.2727 13.3035 11.2939 13.3686C9.73328 13.4187 8.17265 13.4988 6.63558 13.8242C6.35879 13.8843 6.082 13.9444 5.81699 14.0445C5.64031 14.1096 5.46952 14.1897 5.30463 14.2949C5.28107 14.3099 5.25751 14.3249 5.23396 14.3399C5.08084 13.8993 5.09851 13.8543 5.4813 13.679C5.65798 13.5989 5.84643 13.5338 6.029 13.4737C6.31168 13.3886 6.60024 13.3285 6.8947 13.2785C7.07727 13.2484 7.26572 13.2234 7.45417 13.2034C10.2574 12.8679 13.0724 12.9831 15.8875 13.0481C16.9711 13.0732 18.0547 13.1583 19.1206 13.3736C19.2266 13.3936 19.3267 13.4137 19.4268 13.4387C19.4445 13.4437 19.4622 13.4487 19.4799 13.4537C19.686 13.5038 19.8862 13.5589 20.0864 13.634C20.5163 13.7892 20.5281 13.8242 20.4633 14.3199Z" fill="#106B31"/>
</svg>
