<svg width="15" height="17" viewBox="0 0 15 17" fill="none" xmlns="http://www.w3.org/2000/svg">
<path d="M13.0158 0H3.16883C2.3046 0 1.57132 0.760441 1.57132 1.5752V2.17269H1.04755C0.471396 2.17269 0 2.66154 0 3.25903C0 3.85652 0.471396 4.34538 1.04755 4.34538H1.57132V7.06124H1.04755C0.471396 7.06124 0 7.55009 0 8.14758C0 8.74507 0.471396 9.23392 1.04755 9.23392H1.57132V11.9498H1.04755C0.471396 11.9498 0 12.4386 0 13.0361C0 13.6336 0.471396 14.1225 1.04755 14.1225H1.57132V14.6113C1.57132 15.4261 2.3046 16.2952 3.16883 16.2952H13.0158C13.88 16.2952 14.6656 15.3989 14.6656 14.5027V1.46656C14.6656 0.57033 13.88 0 13.0158 0ZM5.49962 11.135C5.49962 11.298 5.39486 11.4066 5.23773 11.4066H4.19018C4.03305 11.4066 3.9283 11.298 3.9283 11.135V5.16013C3.9283 4.99718 4.03305 4.88855 4.19018 4.88855H5.23773C5.39486 4.88855 5.49962 4.99718 5.49962 5.16013V11.135ZM7.59471 11.135C7.59471 11.298 7.48995 11.4066 7.33282 11.4066H6.80905C6.65192 11.4066 6.54716 11.298 6.54716 11.135V5.16013C6.54716 4.99718 6.65192 4.88855 6.80905 4.88855H7.33282C7.48995 4.88855 7.59471 4.99718 7.59471 5.16013V11.135ZM10.2136 11.135C10.2136 11.298 10.1088 11.4066 9.95168 11.4066H8.90414C8.74701 11.4066 8.64225 11.298 8.64225 11.135V5.16013C8.64225 4.99718 8.74701 4.88855 8.90414 4.88855H9.95168C10.1088 4.88855 10.2136 4.99718 10.2136 5.16013V11.135ZM12.3087 11.135C12.3087 11.298 12.2039 11.4066 12.0468 11.4066H11.523C11.3659 11.4066 11.2611 11.298 11.2611 11.135V5.16013C11.2611 4.99718 11.3659 4.88855 11.523 4.88855H12.0468C12.2039 4.88855 12.3087 4.99718 12.3087 5.16013V11.135Z" fill="white"/>
</svg>
