<svg width="17" height="19" viewBox="0 0 17 19" fill="none" xmlns="http://www.w3.org/2000/svg">
<path fill-rule="evenodd" clip-rule="evenodd" d="M7.51189 0.120072C7.87048 -0.0200121 8.26117 -0.0375223 8.62779 0.0675404L8.78327 0.120072L15.1203 2.59534C15.7799 2.85297 16.2317 3.48312 16.289 4.20516L16.2952 4.36118V9.418C16.2952 12.538 14.6526 15.398 12.0322 16.878L11.7913 17.0087L8.75485 18.5901C8.41502 18.7671 8.02176 18.7868 7.67007 18.6491L7.54031 18.5901L4.50387 17.0087C1.82478 15.6134 0.103444 12.8041 0.00450646 9.70089L0 9.418V4.36118C0 3.62746 0.407827 2.96556 1.03675 2.65615L1.17484 2.59534L7.51189 0.120072ZM11.2553 6.18685L7.09274 10.5227L5.49244 8.85571C5.1389 8.48749 4.5657 8.48749 4.21216 8.85571C3.85863 9.22394 3.85863 9.82102 4.21216 10.1892L6.38861 12.4563C6.77752 12.8614 7.40805 12.8614 7.79696 12.4563L12.5356 7.52039C12.8892 7.15214 12.8892 6.5551 12.5356 6.18685C12.1821 5.8186 11.6089 5.8186 11.2553 6.18685Z" fill="white"/>
</svg>
