<svg width="14" height="18" viewBox="0 0 14 18" fill="none" xmlns="http://www.w3.org/2000/svg">
<path d="M12.8902 10.095C12.6987 10.2077 12.4761 10.2745 12.2376 10.2745H10.1589C9.44941 10.2745 8.87175 9.6968 8.87175 8.98677C8.87175 8.7882 8.91824 8.59565 9.0036 8.4228C8.91824 8.24993 8.87175 8.05738 8.87175 7.85828C8.87175 7.6597 8.91824 7.46715 9.0036 7.29431C8.91824 7.12143 8.87175 6.92888 8.87175 6.73034C8.87175 6.53121 8.91824 6.33866 9.0036 6.16581C8.91881 5.99294 8.87175 5.80038 8.87175 5.60129C8.87175 5.46233 8.89419 5.32888 8.93522 5.20361H7.64863C7.589 5.86169 7.36911 6.854 6.64756 7.71775C5.8615 8.65754 4.69085 9.20674 3.17067 9.35665C2.67616 10.315 2.32333 11.3484 2.32333 12.3893C2.32333 15.4467 4.8019 17.9252 7.85865 17.9252C10.916 17.9252 13.3945 15.4467 13.3945 12.3893C13.3946 11.6103 13.196 10.8368 12.8902 10.095ZM9.61297 12.7388H8.32693L8.18854 12.9538V13.4685H9.61301V13.4702V14.0949V14.1999H8.18854V15.3033H7.30347V14.1999H5.879V14.0949V13.4702V13.4685H7.30347V12.9543L7.1656 12.7388H5.879V12.1146H6.76355L6.01193 10.944H6.76135L7.74543 12.4756L8.73063 10.944H9.4806L8.72898 12.1146H9.61297V12.7388Z" fill="white"/>
<path d="M9.49357 2.41128C9.49357 2.41128 9.65658 1.97474 10.5345 1.42061C11.377 0.889451 10.7304 0.155337 9.49357 0.425575C8.63969 0.611581 8.9296 0 7.73217 0C6.53418 0 6.82466 0.611581 5.97074 0.425575C4.73393 0.155337 4.08734 0.889451 4.92977 1.42061C5.80774 1.97474 5.97074 2.41128 5.97074 2.41128H9.49357Z" fill="white"/>
<path d="M12.8612 7.85808C12.8612 7.60808 12.7129 7.39312 12.4996 7.29411C12.7129 7.19455 12.8612 6.98011 12.8612 6.73015C12.8612 6.47962 12.7129 6.26463 12.4996 6.16562C12.7124 6.06661 12.8612 5.85218 12.8612 5.60109C12.8612 5.25702 12.5822 4.97803 12.2375 4.97803H10.1588C9.81477 4.97803 9.53522 5.25702 9.53522 5.60109C9.53522 5.85218 9.68401 6.06661 9.89736 6.16562C9.68401 6.26463 9.53522 6.47962 9.53522 6.73015C9.53522 6.98015 9.68401 7.19458 9.89736 7.29411C9.68401 7.39312 9.53522 7.60811 9.53522 7.85808C9.53522 8.10861 9.68401 8.3236 9.89736 8.42205C9.68401 8.52162 9.53522 8.73605 9.53522 8.98658C9.53522 9.33121 9.81473 9.6102 10.1588 9.6102H12.2375C12.5816 9.6102 12.8612 9.33121 12.8612 8.98658C12.8612 8.73605 12.7124 8.52162 12.4996 8.42261C12.7124 8.3236 12.8612 8.10861 12.8612 7.85808Z" fill="white"/>
<path d="M9.8555 3.13818C9.15531 3.13818 5.89068 3.13818 5.89068 3.13818C4.1763 3.13818 3.69712 4.48003 2.36949 4.48003V8.73862L2.94988 8.7118C7.38516 8.36825 6.99785 4.53909 6.99785 4.53909C6.99785 4.53909 8.08535 4.53909 9.48681 4.53909C10.8878 4.53909 10.9616 3.13818 9.8555 3.13818Z" fill="white"/>
<path d="M1.77018 3.98242H0V9.73381H1.77018V3.98242Z" fill="white"/>
</svg>
