<svg width="18" height="18" viewBox="0 0 18 18" fill="none" xmlns="http://www.w3.org/2000/svg">
<path d="M9.71401 3.29854C9.71401 1.47972 8.17571 0 6.28482 0C4.39388 0 2.85564 1.47972 2.85564 3.29854C2.85564 5.11737 4.39388 6.59698 6.28482 6.59698C8.17571 6.59698 9.71401 5.11737 9.71401 3.29854Z" fill="white"/>
<path d="M12.4925 9.45603C12.1724 9.14815 11.6534 9.1481 11.3332 9.45598C11.0131 9.76386 11.0131 10.2631 11.3332 10.5711L12.393 11.5907L11.3332 12.61C11.0131 12.9178 11.0131 13.4171 11.3332 13.7251C11.4933 13.8791 11.703 13.9561 11.9128 13.9561C12.1226 13.9561 12.3324 13.8791 12.4924 13.7251L14.1318 12.1483C14.2856 12.0004 14.372 11.7998 14.372 11.5907C14.372 11.3816 14.2857 11.1811 14.1319 11.0332L12.4925 9.45603Z" fill="white"/>
<path d="M12.1866 6.07129C10.3019 6.07129 8.62652 6.94998 7.57984 8.30375C7.15561 8.21817 6.72219 8.17391 6.28456 8.17391C2.8192 8.17391 0 10.8857 0 14.219C0 14.6544 0.366964 15.0074 0.819726 15.0074H7.68334C8.73511 16.2873 10.3628 17.1101 12.1866 17.1101C15.3505 17.1101 17.9247 14.6341 17.9247 11.5907C17.9247 8.54734 15.3505 6.07129 12.1866 6.07129ZM12.1866 15.5331C9.92655 15.5331 8.08796 13.7645 8.08796 11.5907C8.08796 9.41683 9.92655 7.64826 12.1866 7.64826C14.4465 7.64826 16.2852 9.41683 16.2852 11.5907C16.2852 13.7645 14.4465 15.5331 12.1866 15.5331Z" fill="white"/>
</svg>
