<svg width="14" height="15" viewBox="0 0 14 15" fill="none" xmlns="http://www.w3.org/2000/svg">
<path d="M5.74843 0C5.39861 0 5.12169 0.282787 5.12169 0.639992V6.93573H7.79637L6.65215 5.76737C6.4408 5.55156 6.4408 5.19436 6.65215 4.97855C6.8635 4.76273 7.21333 4.76273 7.42468 4.97855L9.49449 7.09945C9.70584 7.31526 9.70584 7.67247 9.49449 7.88828L7.42468 10.0092C7.31536 10.1208 7.17689 10.1729 7.03842 10.1729C6.89994 10.1729 6.76147 10.1208 6.65215 10.0092C6.4408 9.79337 6.4408 9.43617 6.65215 9.22036L7.78909 8.05944H5.12169V14.2584C5.12169 14.6082 5.39861 14.8984 5.74843 14.8984C10.0411 14.8984 13.0365 11.8399 13.0365 7.45666C13.0365 3.07345 10.0338 0 5.74843 0Z" fill="white"/>
<path d="M0.577594 6.9834C0.261843 6.9834 0 7.19446 0 7.44897C0 7.70349 0.261843 7.91455 0.577594 7.91455H5.12134V6.9834H0.577594Z" fill="white"/>
</svg>
