<svg width="14" height="19" viewBox="0 0 14 19" fill="none" xmlns="http://www.w3.org/2000/svg">
<path fill-rule="evenodd" clip-rule="evenodd" d="M6.51806 11.851C9.46363 11.851 11.851 9.19758 11.851 5.92551C11.851 2.65344 9.46363 0 6.51806 0C3.57249 0 1.1851 2.65344 1.1851 5.92551C1.1851 9.19758 3.57249 11.851 6.51806 11.851ZM11.675 10.2624C10.4828 11.9464 8.61925 13.0361 6.51806 13.0361C4.41688 13.0361 2.5533 11.9464 1.36109 10.2624C0.535664 10.9095 0 11.9049 0 13.0361V15.4063C0 17.3695 1.59219 18.9616 3.55531 18.9616H9.48082C11.4439 18.9616 13.0361 17.3695 13.0361 15.4063V13.0361C13.0361 11.9049 12.5005 10.9095 11.675 10.2624Z" fill="white"/>
</svg>
