<svg width="18" height="13" viewBox="0 0 18 13" fill="none" xmlns="http://www.w3.org/2000/svg">
<path d="M10.3953 0.441308C10.3632 0.186453 10.1998 0 10.0084 0H1.184C0.929691 0 0.723769 0.278709 0.723769 0.621888C0.723769 0.9657 0.929691 1.24409 1.184 1.24409H3.33155C3.58586 1.24409 3.79178 1.52285 3.79178 1.86634C3.79178 2.20984 3.58586 2.48855 3.33155 2.48855H0.460234C0.206156 2.48855 0 2.76726 0 3.11075C0 3.45425 0.206156 3.7326 0.460234 3.7326H4.37396C4.59853 3.7326 4.78073 3.97927 4.78073 4.28287C4.78073 4.58648 4.59853 4.83279 4.37396 4.83279H2.29465C2.04034 4.83279 1.83442 5.11155 1.83442 5.45504C1.83442 5.79849 2.04034 6.07725 2.29465 6.07725H3.82711C4.05188 6.07725 4.23411 6.32356 4.23411 6.62716C4.23411 6.93072 4.05188 7.17708 3.82711 7.17708H1.71151C1.4572 7.17708 1.25127 7.45579 1.25127 7.79929C1.25127 8.14278 1.4572 8.42149 1.71151 8.42149H4.61935L4.80275 9.82394H5.85609C5.79413 10.0274 5.75881 10.2496 5.75881 10.4835C5.75881 11.4433 6.3342 12.2212 7.0442 12.2212C7.7539 12.2212 8.32933 11.4433 8.32933 10.4835C8.32933 10.2496 8.294 10.0274 8.23205 9.82394H11.5752L10.3953 0.441308ZM7.59734 10.4834C7.59734 10.8966 7.34981 11.2313 7.04417 11.2313C6.73832 11.2313 6.49076 10.8966 6.49076 10.4834C6.49076 10.1959 6.61197 9.94922 6.78792 9.82389H7.30018C7.4761 9.94922 7.59734 10.1959 7.59734 10.4834Z" fill="white"/>
<path d="M17.0965 8.73397L16.5685 5.21268L14.6406 1.20264H11.1305L12.2177 9.82364H13.5017C13.44 10.0271 13.4046 10.2493 13.4046 10.4832C13.4046 11.443 13.9801 12.2209 14.6898 12.2209C15.3998 12.2209 15.9751 11.443 15.9751 10.4832C15.9751 10.2493 15.9398 10.0271 15.8779 9.82364H16.4374C16.6392 9.82364 16.8303 9.7013 16.9581 9.48995C17.0856 9.27901 17.1366 9.00125 17.0965 8.73397ZM13.1174 2.80694H13.9968L15.1384 5.18096H13.417L13.1174 2.80694ZM15.2432 10.4832C15.2432 10.8964 14.9956 11.231 14.6898 11.231C14.3844 11.231 14.1366 10.8964 14.1366 10.4832C14.1366 10.1956 14.2581 9.94897 14.4338 9.82364H14.946C15.1219 9.94897 15.2432 10.1956 15.2432 10.4832Z" fill="white"/>
</svg>
