<svg width="11" height="11" viewBox="0 0 11 11" fill="none" xmlns="http://www.w3.org/2000/svg">
<path d="M1.07276 10.7276C0.750935 10.7276 0.536382 10.6204 0.321829 10.4058C-0.107276 9.97671 -0.107276 9.33305 0.321829 8.90394L8.90394 0.321829C9.33305 -0.107276 9.97671 -0.107276 10.4058 0.321829C10.8349 0.750935 10.8349 1.39459 10.4058 1.8237L1.8237 10.4058C1.60915 10.6204 1.39459 10.7276 1.07276 10.7276Z" fill="white" fill-opacity="0.45"/>
<path d="M9.65488 10.7276C9.33305 10.7276 9.1185 10.6204 8.90394 10.4058L0.321829 1.8237C-0.107276 1.39459 -0.107276 0.750935 0.321829 0.321829C0.750935 -0.107276 1.39459 -0.107276 1.8237 0.321829L10.4058 8.90394C10.8349 9.33305 10.8349 9.97671 10.4058 10.4058C10.1913 10.6204 9.97671 10.7276 9.65488 10.7276Z" fill="white" fill-opacity="0.45"/>
</svg>
