<svg width="17" height="17" viewBox="0 0 17 17" fill="none" xmlns="http://www.w3.org/2000/svg">
<path d="M8.14758 0C3.65012 0 0 3.65012 0 8.14758C0 12.645 3.65012 16.2952 8.14758 16.2952C12.645 16.2952 16.2952 12.645 16.2952 8.14758C16.2952 3.65012 12.645 0 8.14758 0ZM8.96234 13.8509H7.33282V12.2214H8.96234V13.8509ZM10.6489 7.53651L9.9156 8.28609C9.32898 8.88086 8.96234 9.36972 8.96234 10.5919H7.33282V10.1845C7.33282 9.28824 7.69946 8.47348 8.28609 7.87871L9.29639 6.85211C9.59785 6.5588 9.7771 6.15142 9.7771 5.70331C9.7771 4.80707 9.04381 4.07379 8.14758 4.07379C7.25135 4.07379 6.51806 4.80707 6.51806 5.70331H4.88855C4.88855 3.90269 6.34696 2.44427 8.14758 2.44427C9.94819 2.44427 11.4066 3.90269 11.4066 5.70331C11.4066 6.42029 11.1133 7.0721 10.6489 7.53651Z" fill="white"/>
</svg>
